<svg width="120" height="120" viewBox="0 0 120 120" fill="none" xmlns="http://www.w3.org/2000/svg">
<path d="M60 120C93.1371 120 120 93.1371 120 60C120 26.8629 93.1371 0 60 0C26.863 0 0 26.8629 0 60C0 93.1371 26.863 120 60 120Z" fill="#36A9E1"/>
<path d="M42.3736 68.9873C42.9259 68.9873 43.3736 69.435 43.3736 69.9873V93.6493C43.3736 94.2015 42.9259 94.6493 42.3736 94.6493H38.9855C38.4332 94.6493 37.9855 94.2015 37.9855 93.6493V74.1373H37.8361L33.5338 76.853C32.8679 77.2733 32 76.7948 32 76.0074V73.5579C32 73.2163 32.1744 72.8984 32.4624 72.7147L38.0631 69.1441C38.2237 69.0417 38.4102 68.9873 38.6007 68.9873H42.3736Z" fill="white"/>
<path d="M51.2655 94.6493C50.5215 94.6493 50.038 93.8657 50.3717 93.2007L60.2095 73.5985V73.423H48.9026C48.3503 73.423 47.9026 72.9753 47.9026 72.423V69.9873C47.9026 69.435 48.3503 68.9873 48.9026 68.9873H64.7844C65.3367 68.9873 65.7844 69.435 65.7844 69.9873V73.4857L60.4957 84.0675L55.4835 94.0963C55.3141 94.4352 54.9678 94.6493 54.589 94.6493H51.2655Z" fill="white"/>
<path d="M78.4708 95.0001C76.5545 95.0001 74.8497 94.6869 73.3564 94.0603C71.8715 93.4255 70.7059 92.5609 69.8597 91.4666C69.0135 90.3723 68.5904 89.1318 68.5904 87.7451C68.5904 86.6758 68.831 85.6943 69.3122 84.8005C69.8016 83.8983 70.4653 83.1507 71.3032 82.5576C72.1411 81.9561 73.0785 81.5719 74.1155 81.4048V81.2294C72.755 80.9537 71.6516 80.2896 70.8054 79.2371C69.9593 78.1762 69.5362 76.944 69.5362 75.5406C69.5362 74.2124 69.9219 73.0304 70.6934 71.9946C71.465 70.9504 72.5227 70.1318 73.8666 69.5387C75.2188 68.9372 76.7536 68.6365 78.4708 68.6365C80.1881 68.6365 81.7186 68.9372 83.0626 69.5387C84.4148 70.1401 85.4767 70.9629 86.2482 72.0071C87.0197 73.0429 87.4096 74.2208 87.4179 75.5406C87.4096 76.9524 86.9782 78.1845 86.1238 79.2371C85.2693 80.2896 84.1742 80.9537 82.8386 81.2294V81.4048C83.859 81.5719 84.784 81.9561 85.6136 82.5576C86.4514 83.1507 87.1151 83.8983 87.6046 84.8005C88.1023 85.6943 88.3553 86.6758 88.3636 87.7451C88.3553 89.1318 87.9281 90.3723 87.0819 91.4666C86.2357 92.5609 85.066 93.4255 83.5728 94.0603C82.0878 94.6869 80.3872 95.0001 78.4708 95.0001ZM78.4708 91.0155C79.3253 91.0155 80.0719 90.861 80.7107 90.5519C81.3495 90.2344 81.8472 89.8001 82.204 89.2487C82.569 88.689 82.7515 88.0458 82.7515 87.3191C82.7515 86.5756 82.5648 85.9199 82.1915 85.3518C81.8182 84.7754 81.3121 84.3243 80.6734 83.9986C80.0346 83.6644 79.3004 83.4973 78.4708 83.4973C77.6495 83.4973 76.9153 83.6644 76.2683 83.9986C75.6212 84.3243 75.111 84.7754 74.7377 85.3518C74.3727 85.9199 74.1901 86.5756 74.1901 87.3191C74.1901 88.0458 74.3685 88.689 74.7252 89.2487C75.082 89.8001 75.5839 90.2344 76.2309 90.5519C76.878 90.861 77.6246 91.0155 78.4708 91.0155ZM78.4708 79.5503C79.1843 79.5503 79.8189 79.4041 80.3747 79.1118C80.9305 78.8194 81.3661 78.4142 81.6813 77.8963C81.9966 77.3784 82.1542 76.7811 82.1542 76.1045C82.1542 75.4362 81.9966 74.8515 81.6813 74.3503C81.3661 73.8407 80.9347 73.4439 80.3872 73.1599C79.8396 72.8675 79.2009 72.7213 78.4708 72.7213C77.7491 72.7213 77.1103 72.8675 76.5545 73.1599C75.9986 73.4439 75.5631 73.8407 75.2479 74.3503C74.9409 74.8515 74.7875 75.4362 74.7875 76.1045C74.7875 76.7811 74.9451 77.3784 75.2603 77.8963C75.5756 78.4142 76.0111 78.8194 76.5669 79.1118C77.1227 79.4041 77.7574 79.5503 78.4708 79.5503Z" fill="white"/>
<path d="M39.7275 20V58.6364" stroke="white" stroke-width="3" stroke-linecap="round"/>
<path d="M46.5455 52.2726L40.4097 57.9994C40.0255 58.358 39.4293 58.358 39.045 57.9994L32.9092 52.2726" stroke="white" stroke-width="3" stroke-linecap="round"/>
<path d="M59.7275 20V58.6364" stroke="white" stroke-width="3" stroke-linecap="round"/>
<path d="M66.5455 52.2726L60.4097 57.9994C60.0255 58.358 59.4293 58.358 59.045 57.9994L52.9092 52.2726" stroke="white" stroke-width="3" stroke-linecap="round"/>
<path d="M79.7275 20V58.6364" stroke="white" stroke-width="3" stroke-linecap="round"/>
<path d="M86.5455 52.2726L80.4097 57.9994C80.0255 58.358 79.4293 58.358 79.045 57.9994L72.9092 52.2726" stroke="white" stroke-width="3" stroke-linecap="round"/>
</svg>
