<svg width="9" height="16" viewBox="0 0 9 16" fill="none" xmlns="http://www.w3.org/2000/svg">
<path d="M5 1C5 0.723858 4.77614 0.5 4.5 0.5C4.22386 0.5 4 0.723858 4 1L5 1ZM4.14645 15.3536C4.34171 15.5488 4.65829 15.5488 4.85355 15.3536L8.03553 12.1716C8.2308 11.9763 8.2308 11.6597 8.03553 11.4645C7.84027 11.2692 7.52369 11.2692 7.32843 11.4645L4.5 14.2929L1.67157 11.4645C1.47631 11.2692 1.15973 11.2692 0.964467 11.4645C0.769204 11.6597 0.769204 11.9763 0.964467 12.1716L4.14645 15.3536ZM4 1L4 15L5 15L5 1L4 1Z" fill="white"/>
</svg>
