<svg width="74" height="67" viewBox="0 0 74 67" fill="none" xmlns="http://www.w3.org/2000/svg">
<g clip-path="url(#clip0_315_3908)">
<path d="M69.218 14.0968C68.4678 14.7665 67.7747 15.1214 67.8724 15.6901C67.8707 15.712 67.869 15.7338 67.8673 15.7557C67.8276 16.6882 67.7446 17.6173 67.6282 18.555C67.456 19.9287 67.2306 21.2873 66.8115 22.6094C66.5451 23.3706 66.3104 24.1453 65.7122 24.6834C62.771 26.4535 57.6965 27.3142 54.294 27.1565C52.4352 26.9283 52.2009 29.805 54.0599 29.8902C57.7714 29.8621 64.0802 28.2801 66.9289 25.8758C68.848 23.5004 68.7622 19.1248 68.7697 16.0769C69.1536 16.0509 69.5893 15.9187 69.9985 15.7074C70.8953 15.2578 71.4571 14.4858 71.179 13.9916C70.723 13.1208 69.9565 13.4372 69.218 14.0968Z" fill="#1A141F"/>
<path d="M12.2987 43.5735C11.1893 43.0158 10.0028 42.9693 8.8625 42.4735C6.89014 41.6989 3.25359 40.382 2.96081 38.0115C3.03786 36.3538 4.42468 35.0369 5.70364 34.0763C7.13668 33.0538 8.81628 32.3721 10.5267 32.0777C11.066 31.9847 11.4358 31.458 11.328 30.9157C10.7732 28.7777 5.70364 31.9073 4.70204 32.7284C3.08409 34.0298 1.46613 35.858 1.54317 38.089C2.00545 41.6989 7.24455 43.1242 10.2339 43.9144C9.29396 44.2862 9.15528 45.6496 9.78705 46.1453C11.328 47.3693 13.6547 44.9834 12.2987 43.5735Z" fill="#1A141F"/>
<path d="M32.3733 53.826C32.6354 52.6209 32.8771 51.4236 33.0766 50.2073C33.0829 50.1931 33.0751 50.1727 33.0813 50.1585C33.1405 49.6424 32.8025 49.1852 32.3256 49.1574C31.8486 49.1296 31.4313 49.5018 31.3722 50.0179C31.2399 51.1966 31.0732 52.3767 30.8861 53.5647C30.685 54.7463 30.4558 55.9153 30.1843 57.0653C29.6647 59.2741 29.0122 61.4401 28.1361 63.5395C27.6746 63.0947 27.0067 62.6588 26.4406 62.4892C25.4413 62.1927 25.1492 62.8926 25.0119 63.3566C24.9057 63.7499 27.4111 64.5705 28.3337 64.5442C28.4103 64.5616 28.4853 64.5445 28.5525 64.5069C28.5729 64.499 28.5932 64.4912 28.6135 64.4834C28.7011 64.4379 28.7667 64.3657 28.8104 64.2666C29.9101 62.0811 30.783 59.7597 31.4745 57.3908C31.8007 56.2314 32.0971 55.0248 32.3733 53.826Z" fill="#1A141F"/>
<path d="M43.4857 61.1997C42.9464 61.4476 42.33 61.9589 41.9294 62.4237C41.3438 61.4476 40.8199 60.4406 40.3422 59.4025C39.8183 58.2716 39.3252 57.1096 38.8784 55.9476C38.4315 54.7701 38.0001 53.5927 37.6302 52.3997C37.245 51.2067 36.906 49.9983 36.6132 48.8053C36.6132 48.7898 36.6132 48.7743 36.5978 48.7588C36.4591 48.3096 35.9815 48.0462 35.5346 48.1856C35.0877 48.325 34.8258 48.8053 34.9645 49.2546C35.3343 50.4941 35.7503 51.718 36.1972 52.911C36.644 54.1039 37.1371 55.2969 37.6611 56.4589C38.185 57.6208 38.7551 58.7828 39.3561 59.9138C39.9724 61.0448 40.6196 62.1448 41.3592 63.2138C41.4209 63.2913 41.4979 63.3533 41.5904 63.3842H41.6058C41.6982 63.4152 41.7907 63.4152 41.8677 63.3842C42.7769 63.2448 45.1345 62.1138 44.9804 61.773C44.7955 61.3702 44.4565 60.7659 43.4857 61.1997Z" fill="#1A141F"/>
<path d="M58.9156 30.8954C58.6074 33.0799 56.2806 34.6757 55.464 36.6123C54.6165 38.6109 55.0479 41.3997 53.7227 43.0729C52.3975 44.7772 49.5931 44.9941 47.8827 46.28C46.1723 47.5659 45.1707 50.1997 43.1675 51.0053C41.1951 51.7955 38.668 50.587 36.5262 50.8504C34.4459 51.0983 32.2732 52.88 30.1005 52.5701C27.9279 52.2603 26.3407 49.9208 24.4146 49.0997C22.4268 48.2476 19.6532 48.6814 17.989 47.349C16.294 46.0166 16.0783 43.1969 14.7993 41.4771C13.5203 39.7574 10.9008 38.7504 10.0995 36.7363C9.31365 34.7532 10.5156 32.2123 10.2536 30.0588C10.0071 27.9673 8.23501 25.7827 8.54319 23.5982C8.85138 21.4137 11.1782 19.8179 11.9948 17.8813C12.8423 15.8827 12.4109 13.094 13.7361 11.4207C15.0613 9.7165 17.8657 9.49959 19.5761 8.21368C21.2865 6.92776 22.2881 4.29395 24.2913 3.48831C26.2637 2.69817 28.7908 3.90662 30.9326 3.64324C33.0129 3.39535 35.1856 1.61366 37.3582 1.92352C39.5309 2.23338 41.1181 4.57282 43.0442 5.39395C45.032 6.24606 47.8056 5.81226 49.4698 7.14466C51.1648 8.47706 51.3805 11.2968 52.6595 13.0165C53.9385 14.7362 56.558 15.7433 57.3593 17.7574C58.1451 19.7405 56.9432 22.2813 57.2052 24.4348C57.4517 26.5264 59.2238 28.7109 58.9156 30.8954Z" fill="url(#paint0_linear_315_3908)"/>
<path d="M36.5722 4.52634C39.2072 4.13902 41.2566 5.54888 43.1519 7.22212C47.975 10.1193 53.7842 10.9559 53.1987 18.0672C55.4792 33.7152 59.6551 30.2292 47.9287 43.0264C44.0919 47.8293 36.4489 51.4236 30.3777 50.649C27.4038 50.0448 24.9691 47.9842 22.3188 46.5124C18.4203 44.8856 16.8485 42.7476 15.169 39.0138C14.0287 37.294 12.195 36.0701 11.3783 34.1799C10.6695 32.5377 10.8544 30.6785 11.0393 28.8968C11.5016 25.6278 11.5016 22.2503 12.3029 19.0433C12.9809 17.1841 14.6913 15.8517 15.4463 14.0081C15.7391 13.2799 15.8932 12.4743 16.3863 11.8545C17.8501 10.1658 20.3926 10.1348 22.1801 9.0348C26.1711 5.62634 31.441 4.60381 36.5722 4.52634Z" fill="url(#paint1_linear_315_3908)"/>
<path d="M19.3296 12.9082C20.3003 11.8701 21.9183 12.0561 23.2127 11.4828C23.9061 11.173 24.4146 10.5842 24.9693 10.042C28.8062 6.29265 35.1393 5.42505 39.8237 8.01238C40.6866 8.49266 41.5187 9.09689 42.0426 9.93351C42.5819 10.8166 42.7514 11.8701 42.998 12.8617C43.5681 15.1237 44.6313 17.2307 45.6792 19.3223C45.8332 19.6321 46.0027 19.9575 46.2801 20.1744C47.2201 20.9335 48.7456 20.0349 49.778 20.6547C50.7179 21.2124 50.6409 22.5603 50.6563 23.6603C50.6717 25.1321 51.0723 26.5885 51.7812 27.8589C52.0123 28.2772 52.2897 28.7265 52.2126 29.1913C52.1664 29.4857 51.9815 29.7336 51.8274 29.9815C50.5793 31.9801 50.7333 34.5054 50.4714 36.8449C50.2094 39.1843 49.1924 41.8491 46.9273 42.4533C45.71 42.7787 44.431 42.4223 43.1675 42.2984C41.9193 42.1899 40.4401 42.4378 39.8083 43.5223C39.084 44.7463 39.7466 46.528 38.8375 47.628C38.5139 48.0308 38.0208 48.2632 37.5431 48.4491C35.54 49.2548 33.3519 49.5646 31.21 49.3632C31.0867 48.2942 30.948 47.2252 30.8248 46.1562C30.7939 45.9392 30.7631 45.7069 30.6399 45.5364C30.2392 45.0097 29.4225 45.4125 28.7753 45.5984C26.9725 46.1097 25.0926 44.4209 23.2897 44.9477C22.7966 45.0871 22.3497 45.3815 21.8412 45.366C21.5177 45.3505 21.2095 45.2111 20.9321 45.0407C19.7148 44.297 18.9289 43.0111 18.2509 41.7561C15.8009 37.1857 14.0134 32.2589 12.9656 27.1772C12.7807 26.2631 12.6112 25.3026 12.8115 24.3885C13.2584 22.3124 15.4311 20.9335 15.8933 18.8575C16.2015 17.4941 15.4927 15.7744 16.4326 14.7518C17.049 14.1631 18.744 13.5434 19.3296 12.9082Z" fill="#B868F9"/>
<path d="M22.3496 14.5349C20.4851 16.2237 20.5622 18.4856 23.5053 18.5631C24.3682 18.6096 25.2774 18.5321 26.0632 18.8885C27.1573 19.3842 27.6812 20.5617 27.8507 21.6927C28.0664 23.3969 27.8815 25.2406 29.0834 26.6659C29.5765 27.3012 30.4856 27.8744 31.2407 27.5181C33.6445 25.6589 29.0834 23.9857 29.5303 22.0026C29.7768 20.8251 31.4872 20.4378 32.7046 20.8716C33.9065 21.3054 34.8156 22.2349 35.9405 22.8392C37.6355 23.8617 40.0547 23.304 39.9931 21.2434C40.2242 18.8575 38.6679 16.7814 36.6339 15.5265C36.3719 15.1082 36.788 14.6279 36.9729 14.1786C37.466 13.218 36.0637 10.2279 34.7386 10.8321C33.9065 11.6067 34.5074 12.8617 34.1684 13.8222C33.7678 15.1546 31.7646 15.7744 30.5935 14.9222C29.3762 14.0391 28.8523 12.1955 27.1573 11.8391C25.3698 11.4363 23.3975 13.4659 22.3496 14.5349Z" fill="#9D3FE7"/>
<path d="M37.9125 45.3971C36.2791 46.2647 32.5039 45.5055 30.778 44.4675C29.2833 43.383 27.8811 41.8957 27.0028 40.2689C25.7238 37.2942 27.4034 34.2731 28.1123 31.5308C28.7132 28.7421 32.0262 31.252 32.3189 34.2731C32.812 39.3548 44.8003 36.9999 40.1005 42.2675C39.3917 43.2435 38.914 44.6844 37.9125 45.3971Z" fill="#9D3FE7"/>
<path d="M19.6222 23.5364C21.1939 25.2871 21.0706 22.3899 22.6578 23.7378C22.9814 23.9857 23.3666 24.2646 23.7672 24.1406C24.5993 23.7998 24.399 22.6378 23.8289 22.1111C23.0122 21.3674 21.8411 21.1815 20.8395 20.7632C18.0967 19.4308 18.3278 22.0336 19.6222 23.5364Z" fill="#9D3FE7"/>
<path d="M22.7196 40.4547C21.7334 41.1364 20.4853 40.6561 19.8381 39.7575C18.7903 38.611 17.7425 37.449 16.6946 36.3026C15.0459 34.7842 17.4497 32.9716 14.7993 30.2448C15.0305 29.6096 15.9858 29.5321 16.5097 29.9504C17.049 30.3687 17.2648 31.0659 17.4497 31.7166C17.8041 32.4293 17.8349 34.7378 18.8981 34.4124C20.5623 34.1955 22.1649 33.5448 23.5055 32.5378C23.8599 32.2744 24.3222 31.98 24.6766 32.2279C25.5395 33.0955 23.7828 33.8392 23.6442 34.6293C23.9215 36.3335 24.4146 39.2307 22.7196 40.4547Z" fill="#9D3FE7"/>
<path d="M40.4091 22.5913C39.238 23.9701 41.7189 24.4969 42.1041 25.5349C42.1966 26.7124 42.6126 27.9673 43.7529 28.5251C47.4203 30.2913 49.8549 24.7138 45.9564 23.3504C43.7529 23.18 44.3847 21.0729 42.4123 20.4687C41.1796 20.0814 42.0579 21.2898 40.4091 22.5913Z" fill="#9D3FE7"/>
<path d="M45.5709 34.2574C44.0608 34.7222 45.386 36.5504 44.9545 37.5729C44.7234 38.1307 44.0762 38.611 44.2919 39.1687C45.5092 40.9659 47.836 38.7039 47.9901 37.1701C47.7436 35.8997 48.2521 35.2955 48.5602 34.1335C48.5448 33.3588 48.6989 32.5222 48.5294 31.7785C48.2675 31.0659 47.2967 31.0659 47.2351 31.8715C46.9885 32.7391 47.2351 33.6222 47.1734 34.4898C46.8652 36.0081 46.1102 34.18 45.5709 34.2574Z" fill="#9D3FE7"/>
<path d="M27.1876 28.1389C27.3264 27.1735 25.336 26.0852 22.7419 25.7081C20.1477 25.3309 17.9322 25.8078 17.7934 26.7732C17.6545 27.7386 19.645 28.827 22.2391 29.2041C24.8333 29.5812 27.0488 29.1043 27.1876 28.1389Z" fill="#FDE3FF"/>
<path d="M43.4755 26.9913C43.2597 27.2237 42.9362 27.3476 42.628 27.3012C42.6434 27.3786 42.6742 27.4716 42.6896 27.5645C42.8437 28.3547 42.7358 29.6716 41.9962 30.1519C41.0408 30.6322 39.7927 30.3533 38.8836 29.7181C38.4521 29.4237 38.0977 29.0364 37.882 28.6026C37.8511 28.5406 37.8357 28.4941 37.8049 28.4321C37.281 27.0223 38.9298 25.3955 40.3936 25.7054C41.1179 25.7364 41.6264 25.9068 41.9808 26.1857C42.0732 26.1392 42.1503 26.0772 42.2119 26.0152C42.2427 25.9688 42.2582 25.9068 42.2427 25.8603C42.2427 25.8603 42.2427 25.8293 42.2273 25.8293C42.1041 25.7519 42.0578 25.5814 42.1349 25.4575C42.2119 25.3335 42.3814 25.2871 42.5047 25.3645C42.6434 25.442 42.7358 25.5814 42.7667 25.7519C42.8129 25.9533 42.7666 26.1702 42.6434 26.3406C42.5663 26.4645 42.4585 26.5575 42.3352 26.6195C42.366 26.6814 42.4122 26.7434 42.4431 26.8054C42.5047 26.7744 42.5663 26.7589 42.6434 26.7899C42.7975 26.8364 42.967 26.7744 43.0748 26.6659C43.1827 26.5575 43.2135 26.3716 43.1673 26.2166C43.1211 26.0772 43.1827 25.9223 43.3214 25.8603C43.4601 25.8138 43.6142 25.8758 43.6758 26.0152C43.7991 26.3406 43.722 26.7279 43.4755 26.9913Z" fill="#1A141F"/>
<path d="M40.3166 27.0997C40.2241 27.6884 40.6402 28.2462 41.2411 28.3392C41.8267 28.4321 42.3814 28.0138 42.4739 27.4096C42.5663 26.8208 42.1503 26.2631 41.5493 26.1701C40.9638 26.0927 40.409 26.511 40.3166 27.0997Z" fill="white"/>
<path d="M39.1915 28.3081L38.8833 29.718C38.4519 29.4236 38.0975 29.0363 37.8817 28.6025C37.8509 28.5405 37.8355 28.494 37.8047 28.432L39.1915 28.3081Z" fill="white"/>
<path d="M29.407 27.456C29.33 27.4405 29.2684 27.4095 29.2067 27.363C28.9294 27.1616 28.0973 26.6814 27.5425 26.9138C27.3114 27.0067 27.0494 26.8983 26.957 26.6659C26.8645 26.4335 26.9724 26.1701 27.2035 26.0771C27.6812 25.8912 28.1743 25.9377 28.5904 26.0616C28.1127 25.3025 27.2806 24.5588 26.2944 24.2335C25.4931 23.9546 24.2604 23.8616 23.0277 24.9926C22.8428 25.163 22.55 25.1475 22.3959 24.9616C22.2264 24.7757 22.2418 24.4813 22.4267 24.3264C23.644 23.2264 25.1233 22.8856 26.5872 23.3813C28.3746 23.9856 29.669 25.6743 29.9155 26.9447C29.9464 27.1307 29.8693 27.3166 29.7152 27.4095C29.6228 27.4405 29.5149 27.4715 29.407 27.456Z" fill="#1A141F"/>
<path d="M32.8125 39.6492C32.3965 39.6492 31.965 39.6182 31.5181 39.5562C26.1866 38.828 24.1988 33.7928 23.9831 33.2196C23.8444 32.8477 24.0447 32.4294 24.4145 32.29C24.7844 32.1505 25.2004 32.3519 25.3391 32.7238C25.4161 32.9252 27.1265 37.4801 31.7031 38.1153C36.2333 38.7351 39.007 35.3731 39.3306 34.7379C39.5155 34.3815 39.9469 34.2266 40.3013 34.4125C40.6558 34.5984 40.8098 35.0322 40.6249 35.3886C40.024 36.6125 37.1271 39.6492 32.8125 39.6492Z" fill="#1A141F"/>
<path d="M48.7106 32.7752C48.8494 31.8098 46.859 30.7214 44.2648 30.3443C41.6707 29.9672 39.4551 30.4441 39.3163 31.4095C39.1775 32.3749 41.1679 33.4632 43.7621 33.8403C46.3562 34.2175 48.5717 33.7406 48.7106 32.7752Z" fill="#FDE3FF"/>
<path d="M42.9227 37.4858C43.5202 37.237 43.804 36.5482 43.5564 35.9474C43.3089 35.3466 42.6239 35.0613 42.0263 35.3101C41.4288 35.559 41.145 36.2478 41.3925 36.8486C41.64 37.4494 42.3251 37.7347 42.9227 37.4858Z" fill="#D094FF"/>
<path d="M43.4294 36.3956C43.4294 36.721 43.1674 36.9844 42.8438 36.9844C42.5203 36.9844 42.2583 36.721 42.2583 36.3956C42.2583 36.0703 42.5203 35.8069 42.8438 35.8069C43.1828 35.8069 43.4294 36.0703 43.4294 36.3956Z" fill="#1A141F"/>
<path d="M41.5521 14.4866C42.0094 14.0268 42.0094 13.2813 41.5521 12.8215C41.0948 12.3616 40.3533 12.3616 39.8959 12.8215C39.4386 13.2813 39.4386 14.0268 39.896 14.4866C40.3533 14.9465 41.0948 14.9465 41.5521 14.4866Z" fill="#D094FF"/>
<path d="M41.6887 13.6517C41.6887 13.9771 41.4267 14.2405 41.1031 14.2405C40.7795 14.2405 40.5176 13.9771 40.5176 13.6517C40.5176 13.3264 40.7795 13.063 41.1031 13.063C41.4267 13.063 41.6887 13.3264 41.6887 13.6517Z" fill="#1A141F"/>
<path d="M32.2437 10.3551C32.3473 9.71321 31.9138 9.10839 31.2753 9.00421C30.6369 8.90003 30.0354 9.33595 29.9318 9.97786C29.8281 10.6198 30.2617 11.2246 30.9001 11.3288C31.5386 11.4329 32.1401 10.997 32.2437 10.3551Z" fill="#D094FF"/>
<path d="M32.0417 10.1659C32.0417 10.4912 31.7797 10.7546 31.4562 10.7546C31.1326 10.7546 30.8706 10.4912 30.8706 10.1659C30.8706 9.84053 31.1326 9.57715 31.4562 9.57715C31.7797 9.57715 32.0417 9.84053 32.0417 10.1659Z" fill="#1A141F"/>
<path d="M19.0676 17.1687C19.7144 17.1687 20.2387 16.6415 20.2387 15.9912C20.2387 15.3409 19.7144 14.8137 19.0676 14.8137C18.4208 14.8137 17.8965 15.3409 17.8965 15.9912C17.8965 16.6415 18.4208 17.1687 19.0676 17.1687Z" fill="#D094FF"/>
<path d="M20.0227 15.9913C20.0227 16.3167 19.7607 16.5801 19.4371 16.5801C19.1135 16.5801 18.8516 16.3167 18.8516 15.9913C18.8516 15.666 19.1135 15.4026 19.4371 15.4026C19.7607 15.4026 20.0227 15.666 20.0227 15.9913Z" fill="#1A141F"/>
<path d="M34.4612 26.6697C35.0588 26.4208 35.3426 25.732 35.095 25.1312C34.8475 24.5304 34.1624 24.2451 33.5649 24.494C32.9673 24.7428 32.6836 25.4316 32.9311 26.0324C33.1786 26.6333 33.8637 26.9186 34.4612 26.6697Z" fill="#D094FF"/>
<path d="M34.9699 25.5814C34.9699 25.9068 34.708 26.1701 34.3844 26.1701C34.0608 26.1701 33.7988 25.9068 33.7988 25.5814C33.7988 25.2561 34.0608 24.9927 34.3844 24.9927C34.708 25.0082 34.9699 25.2716 34.9699 25.5814Z" fill="#1A141F"/>
<path d="M45.6351 21.7412C46.2326 21.4924 46.5164 20.8036 46.2688 20.2027C46.0213 19.6019 45.3363 19.3166 44.7387 19.5655C44.1411 19.8144 43.8574 20.5032 44.1049 21.104C44.3524 21.7048 45.0375 21.9901 45.6351 21.7412Z" fill="#D094FF"/>
<path d="M46.1413 20.6544C46.1413 20.9798 45.8794 21.2431 45.5558 21.2431C45.2322 21.2431 44.9702 20.9798 44.9702 20.6544C44.9702 20.3291 45.2322 20.0657 45.5558 20.0657C45.8794 20.0657 46.1413 20.3291 46.1413 20.6544Z" fill="#1A141F"/>
<path d="M15.2927 27.58C15.9395 27.58 16.4638 27.0529 16.4638 26.4026C16.4638 25.7523 15.9395 25.2251 15.2927 25.2251C14.6459 25.2251 14.1216 25.7523 14.1216 26.4026C14.1216 27.0529 14.6459 27.58 15.2927 27.58Z" fill="#D094FF"/>
<path d="M16.2478 26.4025C16.2478 26.7278 15.9858 26.9912 15.6622 26.9912C15.3386 26.9912 15.0767 26.7278 15.0767 26.4025C15.0767 26.0771 15.3386 25.8137 15.6622 25.8137C15.9858 25.8292 16.2478 26.0771 16.2478 26.4025Z" fill="#1A141F"/>
<path d="M35.22 35.7302C35.8176 35.4814 36.1013 34.7926 35.8538 34.1918C35.6063 33.5909 34.9212 33.3056 34.3237 33.5545C33.7261 33.8034 33.4424 34.4922 33.6899 35.093C33.9374 35.6938 34.6225 35.9791 35.22 35.7302Z" fill="#D094FF"/>
<path d="M35.7248 34.6449C35.7248 34.9703 35.4629 35.2336 35.1393 35.2336C34.8157 35.2336 34.5537 34.9703 34.5537 34.6449C34.5537 34.3195 34.8157 34.0562 35.1393 34.0562C35.4629 34.0562 35.7248 34.3195 35.7248 34.6449Z" fill="#1A141F"/>
<path d="M23.6594 43.104C24.3062 43.104 24.8305 42.5768 24.8305 41.9265C24.8305 41.2762 24.3062 40.749 23.6594 40.749C23.0126 40.749 22.4883 41.2762 22.4883 41.9265C22.4883 42.5768 23.0126 43.104 23.6594 43.104Z" fill="#D094FF"/>
<path d="M24.6149 41.9266C24.6149 42.252 24.353 42.5154 24.0294 42.5154C23.7058 42.5154 23.4438 42.252 23.4438 41.9266C23.4438 41.6013 23.7058 41.3379 24.0294 41.3379C24.353 41.3534 24.6149 41.6013 24.6149 41.9266Z" fill="#1A141F"/>
<path d="M22.0592 32.0153C22.1628 31.3734 21.7292 30.7685 21.0908 30.6644C20.4523 30.5602 19.8508 30.9961 19.7472 31.638C19.6436 32.2799 20.0771 32.8847 20.7156 32.9889C21.354 33.0931 21.9555 32.6572 22.0592 32.0153Z" fill="#D094FF"/>
<path d="M21.8566 31.8404C21.8566 32.1658 21.5947 32.4292 21.2711 32.4292C20.9475 32.4292 20.6855 32.1658 20.6855 31.8404C20.6855 31.5151 20.9475 31.2517 21.2711 31.2517C21.5947 31.2517 21.8566 31.5151 21.8566 31.8404Z" fill="#1A141F"/>
<path d="M25.6936 22.6997C26.3403 22.6997 26.8646 22.1725 26.8646 21.5222C26.8646 20.8719 26.3403 20.3447 25.6936 20.3447C25.0468 20.3447 24.5225 20.8719 24.5225 21.5222C24.5225 22.1725 25.0468 22.6997 25.6936 22.6997Z" fill="#D094FF"/>
<path d="M26.6643 21.5223C26.6643 21.8477 26.4023 22.1111 26.0787 22.1111C25.7551 22.1111 25.4932 21.8477 25.4932 21.5223C25.4932 21.197 25.7551 20.9336 26.0787 20.9336C26.4023 20.9336 26.6643 21.197 26.6643 21.5223Z" fill="#1A141F"/>
<path d="M34.0144 48.9138C34.6611 48.9138 35.1855 48.3866 35.1855 47.7363C35.1855 47.086 34.6611 46.5588 34.0144 46.5588C33.3676 46.5588 32.8433 47.086 32.8433 47.7363C32.8433 48.3866 33.3676 48.9138 34.0144 48.9138Z" fill="#D094FF"/>
<path d="M34.9694 47.7362C34.9694 48.0615 34.7075 48.3249 34.3839 48.3249C34.0603 48.3249 33.7983 48.0615 33.7983 47.7362C33.7983 47.4108 34.0603 47.1475 34.3839 47.1475C34.7075 47.1475 34.9694 47.4108 34.9694 47.7362Z" fill="#1A141F"/>
<path d="M49.778 30.8645C50.4248 30.8645 50.9491 30.3373 50.9491 29.687C50.9491 29.0367 50.4248 28.5095 49.778 28.5095C49.1313 28.5095 48.6069 29.0367 48.6069 29.687C48.6069 30.3373 49.1313 30.8645 49.778 30.8645Z" fill="#D094FF"/>
<path d="M50.7336 29.6871C50.7336 30.0125 50.4716 30.2759 50.148 30.2759C49.8245 30.2759 49.5625 30.0125 49.5625 29.6871C49.5625 29.3618 49.8245 29.0984 50.148 29.0984C50.4716 29.0984 50.7336 29.3618 50.7336 29.6871Z" fill="#1A141F"/>
</g>
<defs>
<linearGradient id="paint0_linear_315_3908" x1="8.50732" y1="-15.0188" x2="45.1092" y2="80.4749" gradientUnits="userSpaceOnUse">
<stop stop-color="#BB64FF"/>
<stop offset="1" stop-color="#9D3FE7"/>
</linearGradient>
<linearGradient id="paint1_linear_315_3908" x1="10.8711" y1="-10.9692" x2="44.8743" y2="75.6471" gradientUnits="userSpaceOnUse">
<stop stop-color="#9D3FE7"/>
<stop offset="1" stop-color="#602093"/>
</linearGradient>
<clipPath id="clip0_315_3908">
<rect width="73.1933" height="66.5394" fill="white"/>
</clipPath>
</defs>
</svg>
