<svg width="30" height="31" viewBox="0 0 30 31" fill="none" xmlns="http://www.w3.org/2000/svg">
<path d="M14.9604 29.1022C7.75195 29.1022 1.85449 23.1919 1.85449 15.9685C1.85449 8.74502 7.75195 2.83496 14.9604 2.83496C22.1689 2.83496 28.0664 8.74502 28.0664 15.9685C28.0664 23.1919 22.1687 29.1022 14.9604 29.1022ZM19.1895 26.0439C21.8088 24.9223 23.8938 22.8323 25.0093 20.2104C25.5767 18.8681 25.8691 17.4257 25.8691 15.9685C25.8691 14.5112 25.5767 13.0688 25.0093 11.7266C23.894 9.10439 21.809 7.0144 19.1895 5.89297C17.8522 5.32496 16.4142 5.03222 14.9613 5.03222C13.5084 5.03222 12.0705 5.32496 10.7332 5.89297C8.11286 7.0138 6.02704 9.10391 4.91162 11.7266C4.34416 13.0688 4.05177 14.5112 4.05177 15.9685C4.05177 17.4257 4.34416 18.8681 4.91162 20.2104C6.02697 22.8327 8.11242 24.9226 10.7323 26.0437C12.0696 26.6116 13.5076 26.9042 14.9604 26.9042C16.4133 26.9042 17.8513 26.6116 19.1886 26.0437L19.1895 26.0439Z" fill="#949DA6"/>
<path d="M13.8867 19.2146V9.31226C13.8867 8.57983 14.2529 8.21362 14.9854 8.21362C15.7178 8.21362 16.084 8.57983 16.084 9.31226V19.2146C16.084 19.947 15.7178 20.3132 14.9854 20.3132C14.2529 20.3132 13.8867 19.947 13.8867 19.2146Z" fill="#949DA6"/>
<path d="M13.9746 22.6423C13.9746 22.9337 14.0904 23.2132 14.2964 23.4192C14.5024 23.6252 14.7819 23.741 15.0732 23.741C15.3646 23.741 15.6441 23.6252 15.8501 23.4192C16.0561 23.2132 16.1719 22.9337 16.1719 22.6423C16.1719 22.351 16.0561 22.0715 15.8501 21.8655C15.6441 21.6595 15.3646 21.5437 15.0732 21.5437C14.7819 21.5437 14.5024 21.6595 14.2964 21.8655C14.0904 22.0715 13.9746 22.351 13.9746 22.6423Z" fill="#949DA6"/>
</svg>
