<svg width="134" height="45" viewBox="0 0 134 45" fill="none" xmlns="http://www.w3.org/2000/svg">
<path d="M72.0501 0C69.9249 0 68.186 1.72397 68.186 3.86407C68.186 6.00418 69.91 7.72815 72.0501 7.72815C74.1902 7.72815 75.9142 6.00418 75.9142 3.86407C75.9142 1.72397 74.1902 0 72.0501 0Z" fill="#FACC00"/>
<path d="M82.0672 0C79.942 0 78.2031 1.72397 78.2031 3.86407C78.2031 6.00418 79.9271 7.72815 82.0672 7.72815C84.2073 7.72815 85.9313 6.00418 85.9313 3.86407C85.9313 1.72397 84.2073 0 82.0672 0Z" fill="#DA261B"/>
<path d="M92.0838 0C89.9586 0 88.2197 1.72397 88.2197 3.86407C88.2197 6.00418 89.9437 7.72815 92.0838 7.72815C94.2239 7.72815 95.9479 6.00418 95.9479 3.86407C95.9479 1.72397 94.2239 0 92.0838 0Z" fill="#72B42C"/>
<path d="M21.6537 10.3441C21.6537 10.3441 21.9806 11.2507 23.3925 10.7305C24.8044 10.2104 26.0676 9.497 26.4838 9.17004C26.8999 8.84308 26.246 7.90679 25.919 7.52038C25.5921 7.13397 22.0549 2.6457 14.3417 2.86863C6.62837 3.09156 0 7.5501 0 19.4544C0 31.3587 6.40545 35.208 12.8109 36.0254C19.2163 36.8428 22.9615 34.1379 22.9615 33.6326C22.9615 33.1273 22.2333 29.6199 21.6537 29.6199C21.2524 29.6199 18.7556 32.0424 15.055 32.0424C11.3544 32.0424 5.91501 30.6602 6.00418 19.5139C6.09335 8.3675 11.2355 6.83674 14.4903 6.83674C17.745 6.83674 20.2269 7.84734 21.6685 10.3441H21.6537Z" fill="white"/>
<path d="M43.9168 30.4967V17.1656C43.9168 12.9895 40.3202 10.9683 34.9848 10.9683C29.6494 10.9683 26.7068 13.0043 26.4541 13.2421C26.2015 13.4799 26.6325 14.5797 26.6325 14.5797C26.6325 14.5797 27.1229 15.6349 27.435 16.1253C27.7471 16.6158 28.2227 16.6901 29.1739 16.3631C30.125 16.0361 31.849 15.3971 34.4349 15.1593C37.0209 14.9215 39.0718 16.0659 39.0718 17.4183V20.1231C29.5305 20.1231 25.0571 23.6157 25.0571 28.6687C25.0571 33.7217 28.5199 35.8767 32.9339 35.8767C37.3479 35.8767 39.9784 33.0975 39.919 33.0678C40.127 33.6028 41.2714 35.6835 41.9402 35.8618C42.6089 36.0402 45.5219 34.5094 45.6705 33.8703C45.8191 33.2461 43.9316 31.7897 43.9316 30.4967H43.9168ZM39.0124 29.4118C39.0124 29.4118 35.9508 32.1464 33.2609 32.1464C30.5709 32.1464 29.8575 29.5307 29.8575 28.6241C29.8575 27.7175 30.3034 23.9278 38.9975 23.9278V29.3969L39.0124 29.4118Z" fill="white"/>
<path d="M47.558 1.14451L51.0208 0.178495C51.5261 0.0596005 52.0166 0.46087 52.0166 0.981034V30.6601C52.0166 32.176 53.6514 31.9679 54.439 31.8936C55.2862 31.8193 56.6683 31.3883 57.025 31.5667C57.3817 31.745 58.2882 34.0337 58.3328 34.5688C58.3774 35.1038 55.4942 35.8617 53.369 35.8617C51.2437 35.8617 46.9189 35.2673 46.9189 30.9722V1.94705C46.9189 1.56064 47.1865 1.23368 47.558 1.14451Z" fill="white"/>
<path d="M62.0335 7.52027C64.0526 7.52027 65.6895 5.88342 65.6895 3.86426C65.6895 1.8451 64.0526 0.208252 62.0335 0.208252C60.0143 0.208252 58.3774 1.8451 58.3774 3.86426C58.3774 5.88342 60.0143 7.52027 62.0335 7.52027Z" fill="#36A9E1"/>
<path d="M80.1053 10.9681C75.8103 10.9681 73.0311 13.6432 73.0311 13.6432C73.0311 13.6432 71.8273 11.0275 70.9504 10.9681C70.3262 10.9235 68.5874 12.0381 67.6808 12.6623C67.3539 12.8853 67.2647 13.3311 67.4728 13.6729L68.7955 15.8428V44.3032C68.7955 45.2395 70.4154 44.972 70.6829 44.9422C70.9504 44.9125 73.9079 44.4518 73.9079 43.7087V34.4795C73.9079 34.4795 75.6468 35.8765 79.7932 35.8765C83.9397 35.8765 89.4534 32.7109 89.4534 23.9573C89.4534 15.2037 85.7825 10.9978 80.1053 10.9978V10.9681ZM79.2136 31.8192C76.6871 31.8192 73.8485 30.4222 73.8485 30.4222V17.4776C73.8485 17.4776 76.0183 15.278 78.9907 15.0848C81.8739 14.9065 84.1329 16.1251 84.1329 23.452C84.1329 30.7789 81.7401 31.8341 79.2136 31.8341V31.8192Z" fill="white"/>
<path d="M55.4048 12.6178V14.5796C55.4048 15.1146 55.8358 15.5605 56.3857 15.5605H59.3283C59.8633 15.5605 60.3092 15.9915 60.3092 16.5414V34.3161C60.3092 34.8511 60.7402 35.297 61.2901 35.297H64.2624C64.7975 35.297 65.2433 34.866 65.2433 34.3161V12.6178C65.2433 12.0828 64.8123 11.637 64.2624 11.637H56.3857C55.8506 11.637 55.4048 12.068 55.4048 12.6178Z" fill="white"/>
<path d="M108.179 13.6729L107.184 15.8427C107.005 16.2291 106.559 16.4075 106.158 16.2737C104.91 15.813 102.309 14.9659 100.644 15.0996C98.8906 15.2334 97.4342 15.9319 97.3896 17.641C97.345 19.3501 98.5637 20.3459 103.305 22.055C108.046 23.7641 109.175 26.3798 109.175 29.0549C109.175 31.73 107.139 35.8765 100.02 35.8765C93.5552 35.8765 91.5786 33.6472 91.5786 33.2459C91.5786 32.8447 92.7081 30.229 93.2431 30.229C93.7782 30.229 96.3047 31.8489 99.604 31.8489C102.903 31.8489 104.167 31.1653 104.167 29.2332C104.167 27.3012 103.26 26.6176 98.6677 24.7598C94.0754 22.9021 91.9502 20.8809 92.3514 17.4478C92.7527 14.0147 95.2792 11.1464 101.016 10.9829C104.345 10.9829 106.782 12.0381 107.837 12.6177C108.224 12.8258 108.372 13.2865 108.194 13.6729H108.179Z" fill="white"/>
<path d="M122.61 10.6116C116.324 10.6116 111.226 14.8175 111.226 23.4225C111.226 32.0275 116.324 36.2334 122.61 36.2334C128.897 36.2334 133.994 32.1315 133.994 23.4225C133.994 14.7134 128.897 10.6116 122.61 10.6116ZM122.61 32.6368C119.162 32.6368 116.368 30.3035 116.368 23.4076C116.368 16.5117 119.162 14.1784 122.61 14.1784C126.058 14.1784 128.852 16.2888 128.852 23.4076C128.852 30.5264 126.058 32.6368 122.61 32.6368Z" fill="white"/>
</svg>
