<svg width="35" height="35" viewBox="0 0 35 35" fill="none" xmlns="http://www.w3.org/2000/svg">
<g clip-path="url(#clip0_406_5396)">
<path d="M28.987 14.1571C29.5823 15.0394 30.2318 15.6115 30.941 15.8022C31.6388 15.99 32.4563 15.8193 33.419 15.2301C33.8064 14.9911 34.3134 15.1134 34.5498 15.5005C34.6295 15.6314 34.6694 15.7737 34.6723 15.9189C34.7093 16.3173 34.7321 16.7215 34.7406 17.1313C34.7492 17.5469 34.7463 17.9595 34.7264 18.3694C34.7264 18.4064 34.7235 18.4434 34.7178 18.4775C34.4586 23.2362 32.3053 27.4456 29.0212 30.4113C25.7314 33.3826 21.3137 35.1045 16.5399 34.8768V34.8797C16.5029 34.8797 16.4659 34.8768 16.4317 34.8711C11.6693 34.6121 7.45669 32.4605 4.48876 29.1789C1.51228 25.8917 -0.208102 21.4773 0.0197625 16.7073C0.0197625 16.6703 0.0226108 16.6333 0.0283075 16.5991C0.284655 11.8347 2.50918 7.60255 5.85879 4.61982C9.21125 1.63141 13.6973 -0.104722 18.4711 0.122967C18.9268 0.122967 19.2943 0.490116 19.2943 0.945493C19.2943 1.05934 19.2715 1.16749 19.2287 1.26426C18.8955 2.34863 18.8727 3.3533 19.1518 4.15021C19.4053 4.87313 19.9209 5.43381 20.6928 5.72127C21.1029 5.87496 21.3194 6.31895 21.1884 6.73164H21.1912C20.67 8.408 20.6586 9.88513 21.0431 11.0748C21.2767 11.7949 21.6527 12.4096 22.1483 12.8963C22.6439 13.3858 23.2591 13.7501 23.9683 13.9721C25.119 14.3308 26.5147 14.308 28.0443 13.8156C28.406 13.7018 28.7905 13.8498 28.987 14.1571ZM16.8846 16.5706C17.6736 16.5706 18.3116 17.2082 18.3116 17.9965C18.3116 18.7849 17.6736 19.4224 16.8846 19.4224C16.0956 19.4224 15.4576 18.7849 15.4576 17.9965C15.4576 17.2082 16.0985 16.5706 16.8846 16.5706ZM10.6981 22.4422C11.6579 22.4422 12.4384 23.2192 12.4384 24.1811C12.4384 25.1431 11.6608 25.9201 10.6981 25.9201C9.73534 25.9201 8.95775 25.1431 8.95775 24.1811C8.95775 23.2192 9.73534 22.4422 10.6981 22.4422ZM14.4464 9.13945C15.2012 9.13945 15.8108 9.74852 15.8108 10.5027C15.8108 11.257 15.2012 11.866 14.4464 11.866C13.6916 11.866 13.0821 11.257 13.0821 10.5027C13.0821 9.74852 13.6945 9.13945 14.4464 9.13945ZM33.9801 9.32445C34.5441 9.32445 34.9998 9.77982 34.9998 10.3434C34.9998 10.9069 34.5441 11.3623 33.9801 11.3623C33.4162 11.3623 32.9604 10.9069 32.9604 10.3434C32.9576 9.78267 33.4162 9.32445 33.9801 9.32445ZM26.6657 6.62349C27.5145 6.62349 28.2009 7.3094 28.2009 8.15754C28.2009 9.00568 27.5145 9.69159 26.6657 9.69159C25.8169 9.69159 25.1304 9.00568 25.1304 8.15754C25.1304 7.31224 25.8169 6.62349 26.6657 6.62349ZM27.8534 0.270965C28.762 0.270965 29.4997 1.00811 29.4997 1.91602C29.4997 2.82393 28.762 3.56107 27.8534 3.56107C26.9448 3.56107 26.2071 2.82393 26.2071 1.91602C26.2099 1.00526 26.9448 0.270965 27.8534 0.270965ZM21.8549 23.0512C23.1167 23.0512 24.1421 24.073 24.1421 25.3367C24.1421 26.5975 23.1195 27.6221 21.8549 27.6221C20.5902 27.6221 19.5677 26.6003 19.5677 25.3367C19.5677 24.073 20.5902 23.0512 21.8549 23.0512ZM9.08877 13.4172C10.456 13.4172 11.564 14.5243 11.564 15.8904C11.564 17.2566 10.456 18.3637 9.08877 18.3637C7.72159 18.3637 6.61359 17.2566 6.61359 15.8904C6.61359 14.5271 7.72159 13.4172 9.08877 13.4172ZM30.5137 17.3903C29.5482 17.1313 28.7051 16.4966 27.9645 15.546C26.3182 15.9787 24.7858 15.9473 23.4756 15.5404C22.5157 15.2415 21.6754 14.7406 20.9947 14.0661C20.314 13.3915 19.7956 12.5519 19.4794 11.5757C19.0493 10.2494 18.998 8.67269 19.4281 6.93087C18.5452 6.41857 17.9328 5.64158 17.5995 4.68813C17.2976 3.82007 17.2349 2.81254 17.4258 1.7424C13.4638 1.79648 9.76952 3.33623 6.95254 5.8465C3.9134 8.55315 1.8968 12.384 1.66324 16.693V16.7073L1.66039 16.7443C1.44392 21.0846 3.00479 25.0976 5.70214 28.0803C8.39094 31.0517 12.2077 33.0012 16.5257 33.2318H16.5399L16.577 33.2346C20.9178 33.4538 24.9368 31.8941 27.9218 29.196C30.8954 26.5093 32.8465 22.6955 33.0772 18.3808V18.3665L33.0801 18.3295C33.1 17.9482 33.1057 17.5782 33.0972 17.2167C32.18 17.5611 31.3198 17.6095 30.5137 17.3903Z" fill="#1A141F"/>
</g>
<defs>
<clipPath id="clip0_406_5396">
<rect width="35" height="34.7937" fill="white" transform="translate(0 0.103027)"/>
</clipPath>
</defs>
</svg>
