<svg width="30" height="31" viewBox="0 0 30 31" fill="none" xmlns="http://www.w3.org/2000/svg">
<path d="M14.9604 28.7966C7.75195 28.7966 1.85449 22.8862 1.85449 15.6628C1.85449 8.43936 7.75195 2.5293 14.9604 2.5293C22.1689 2.5293 28.0664 8.43936 28.0664 15.6628C28.0664 22.8862 22.1687 28.7966 14.9604 28.7966ZM19.1895 25.7383C21.8088 24.6166 23.8938 22.5267 25.0093 19.9047C25.5767 18.5625 25.8691 17.12 25.8691 15.6628C25.8691 14.2055 25.5767 12.7631 25.0093 11.4209C23.894 8.79873 21.809 6.70873 19.1895 5.5873C17.8522 5.0193 16.4142 4.72655 14.9613 4.72655C13.5084 4.72655 12.0705 5.0193 10.7332 5.5873C8.11286 6.70813 6.02704 8.79825 4.91162 11.4209C4.34416 12.7631 4.05177 14.2055 4.05177 15.6628C4.05177 17.12 4.34416 18.5625 4.91162 19.9047C6.02697 22.527 8.11242 24.617 10.7323 25.738C12.0696 26.3059 13.5076 26.5986 14.9604 26.5986C16.4133 26.5986 17.8513 26.3059 19.1886 25.738L19.1895 25.7383Z" fill="#FF4C4C"/>
<path d="M9.20874 19.8995L19.4425 9.66577C19.9604 9.14787 20.4783 9.14787 20.9962 9.66577C21.5141 10.1837 21.5141 10.7016 20.9962 11.2195L10.7624 21.4532C10.2445 21.9711 9.72664 21.9711 9.20874 21.4532C8.69084 20.9353 8.69084 20.4174 9.20874 19.8995Z" fill="#FF4C4C"/>
<path d="M19.3467 21.5491L9.11303 11.3154C8.59513 10.7975 8.59513 10.2796 9.11303 9.76172C9.63094 9.24382 10.1488 9.24382 10.6667 9.76172L20.9004 19.9954C21.4184 20.5133 21.4184 21.0312 20.9004 21.5491C20.3825 22.067 19.8646 22.067 19.3467 21.5491Z" fill="#FF4C4C"/>
</svg>
