<svg width="236" height="278" viewBox="0 0 236 278" fill="none" xmlns="http://www.w3.org/2000/svg">
<path opacity="0.5" d="M38.7569 165.002C59.7604 165.002 76.7871 147.975 76.7871 126.972C76.7871 105.968 59.7604 88.9414 38.7569 88.9414C17.7533 88.9414 0.726562 105.968 0.726562 126.972C0.726562 147.975 17.7533 165.002 38.7569 165.002Z" fill="#DA261B" fill-opacity="0.3"/>
<circle cx="170.336" cy="212.43" r="64.8398" fill="#96CFEB" fill-opacity="0.5"/>
<g clip-path="url(#clip0_216_2393)">
<path opacity="0.1" d="M179.327 197.976L177.512 193.025C176.839 191.206 178.352 189.757 178.789 187.939C179.562 184.705 176.873 177.43 174.183 175.476C172.67 174.365 170.586 174.263 169.913 172.445L168.098 167.493C167.425 165.674 168.938 164.26 169.375 162.407C170.149 159.174 167.459 151.898 164.769 149.945C163.256 148.833 161.172 148.732 160.499 146.913L158.684 141.962C158.012 140.143 159.524 138.728 159.962 136.876C160.735 133.642 158.045 126.333 155.355 124.413C153.843 123.302 151.758 123.201 151.086 121.382L149.27 116.43C148.598 114.611 150.111 113.163 150.548 111.344C151.321 108.111 148.631 100.802 145.942 98.8479C144.429 97.7364 142.344 97.6354 141.672 95.8165L139.856 90.8652C139.184 89.0463 140.697 87.6316 141.134 85.7791C141.436 84.4991 139.318 80.8951 139.318 80.8951C131.821 60.6518 105.731 51.0522 88.3829 52.2648L81.6251 34.0088L54.3923 44.1136L61.15 62.3696C47.0966 72.8112 33.5138 97.1301 41.0112 117.373C41.0112 117.373 41.7509 121.483 42.8267 122.257C44.3397 123.369 46.4241 123.47 47.0966 125.289L48.9121 130.24C49.5845 132.059 48.0716 133.507 47.6345 135.326C46.8612 138.56 49.5509 145.835 52.2405 147.789C53.7535 148.9 55.838 149.001 56.5104 150.82L58.3259 155.772C58.9983 157.591 57.4854 159.039 57.0483 160.858C56.275 164.091 58.9647 171.4 61.6544 173.354C63.1673 174.466 65.2518 174.567 65.9242 176.385L67.7397 181.337C68.4121 183.156 66.8992 184.57 66.4621 186.423C65.6888 189.656 68.3785 196.932 71.0682 198.885C72.5811 199.997 74.6656 200.098 75.338 201.917L77.1535 206.868C77.826 208.687 76.313 210.135 75.8759 211.954C75.1027 215.188 77.7923 222.497 80.482 224.417C81.9949 225.528 84.0794 225.63 84.7518 227.448L86.5673 232.4C87.2398 234.219 85.7268 235.667 85.2898 237.486C84.8527 239.372 87.9794 244.761 87.9794 244.761C90.5346 251.7 98.2338 255.237 105.126 252.643L178.251 225.495C185.177 222.935 188.707 215.222 186.118 208.317C186.118 208.317 185.009 202.186 183.429 201.041C181.916 199.93 179.831 199.829 179.159 198.01L179.327 197.976Z" fill="#A7D8EA"/>
<path opacity="0.1" d="M159.86 136.876C160.633 133.642 157.944 126.333 155.254 124.413C153.741 123.302 151.657 123.201 150.984 121.382L149.169 116.43C148.496 114.611 150.009 113.163 150.446 111.344C151.22 108.111 148.53 100.802 145.84 98.8479C144.327 97.7364 142.243 97.6354 141.57 95.8165L139.755 90.8651C139.083 89.0463 140.595 87.6316 141.033 85.7791C141.335 84.4991 139.217 80.8951 139.217 80.8951C131.72 60.6518 105.63 51.0522 88.2815 52.2648L81.5238 34.0088L67.5039 39.1959L141.436 239.136L178.385 225.427C185.311 222.868 188.841 215.154 186.253 208.249C186.253 208.249 185.143 202.119 183.563 200.974C182.05 199.862 179.965 199.761 179.293 197.942L177.477 192.991C176.805 191.172 178.318 189.724 178.755 187.905C179.528 184.671 176.839 177.396 174.149 175.442C172.636 174.331 170.552 174.23 169.879 172.411L168.064 167.46C167.391 165.641 168.904 164.226 169.341 162.373C170.115 159.14 167.425 151.864 164.735 149.911C163.222 148.799 161.138 148.698 160.465 146.879L158.65 141.928C157.977 140.109 159.49 138.695 159.927 136.842L159.86 136.876Z" fill="#89CEEC"/>
<g style="mix-blend-mode:multiply">
<path opacity="0.2" d="M177.712 223.642L104.587 250.79C104.083 250.959 103.545 250.723 103.377 250.218C103.208 249.713 103.444 249.174 103.948 249.005L177.073 221.857C182.016 220.038 184.537 214.514 182.722 209.563L182.621 209.327L182.52 208.923C182.116 206.7 181.444 204.645 181.074 203.904C180.839 203.803 180.603 203.668 180.335 203.567C178.99 202.961 176.737 201.984 175.728 199.29L173.913 194.338C172.904 191.644 173.98 189.421 174.619 188.073C174.821 187.669 174.989 187.265 175.056 187.029C175.46 185.278 173.341 179.552 171.896 178.541C171.694 178.406 171.291 178.238 170.921 178.07C169.542 177.463 167.29 176.453 166.281 173.758L164.466 168.807C163.457 166.112 164.533 163.889 165.172 162.542C165.373 162.138 165.541 161.733 165.609 161.498C166.012 159.746 163.894 154.054 162.448 152.976C162.247 152.841 161.843 152.639 161.473 152.471C160.095 151.864 157.876 150.854 156.867 148.159L155.052 143.208C154.043 140.513 155.119 138.29 155.758 136.943C155.959 136.539 156.128 136.135 156.195 135.899C156.598 134.181 154.48 128.455 153.034 127.411C152.833 127.276 152.429 127.108 152.059 126.906C150.715 126.299 148.462 125.322 147.453 122.628L145.604 117.677C144.596 114.982 145.672 112.759 146.31 111.412C146.512 111.007 146.68 110.603 146.747 110.367C147.151 108.65 145.033 102.923 143.587 101.879C143.385 101.745 142.982 101.576 142.612 101.408C141.234 100.801 138.981 99.791 137.972 97.0964L136.157 92.145C135.148 89.4504 136.224 87.2274 136.863 85.8801C136.964 85.678 137.065 85.4759 137.132 85.3075C136.896 84.7012 136.426 83.657 135.921 82.7812L135.787 82.5455L135.619 82.175C128.693 63.4474 103.814 54.9594 88.5498 56.0372L86.3981 56.1719C85.9946 56.1719 85.5912 55.9698 85.4567 55.5656L78.9679 37.9833C78.7998 37.478 79.0351 36.9391 79.5394 36.7707C80.0437 36.6023 80.5817 36.8381 80.7498 37.3433L87.0032 54.252L88.4489 54.151C104.318 53.0394 130.206 61.9317 137.434 81.5013L137.569 81.8045C138.241 82.9497 138.88 84.3643 139.082 85.0717C139.115 85.2738 139.115 85.4422 139.082 85.6443C138.981 85.9474 138.813 86.3179 138.611 86.6884C138.04 87.901 137.266 89.5178 137.972 91.4714L139.788 96.4227C140.494 98.3763 142.175 99.0837 143.385 99.6226C143.923 99.8584 144.394 100.06 144.73 100.33C146.815 101.846 149.202 108.313 148.597 110.805C148.496 111.243 148.26 111.715 148.025 112.22C147.453 113.432 146.68 115.083 147.386 117.003L149.202 121.954C149.908 123.908 151.589 124.649 152.799 125.154C153.303 125.39 153.774 125.592 154.144 125.861C156.228 127.377 158.616 133.844 158.01 136.337C157.909 136.775 157.674 137.246 157.439 137.751C156.867 138.964 156.094 140.614 156.8 142.534L158.616 147.486C159.322 149.439 161.003 150.147 162.213 150.686C162.717 150.921 163.188 151.123 163.558 151.393C165.642 152.909 168.029 159.376 167.424 161.868C167.323 162.306 167.088 162.744 166.886 163.249C166.281 164.495 165.508 166.112 166.247 168.066L168.063 173.017C168.769 174.971 170.45 175.678 171.66 176.217C172.198 176.453 172.669 176.655 173.005 176.924C175.09 178.44 177.477 184.907 176.872 187.4C176.771 187.838 176.535 188.309 176.3 188.814C175.728 190.027 174.955 191.677 175.661 193.597L177.477 198.549C178.183 200.502 179.864 201.243 181.074 201.748C181.511 201.951 181.915 202.119 182.251 202.321C182.352 202.388 182.453 202.489 182.553 202.591C183.192 203.534 183.999 206.397 184.369 208.485L184.47 208.822C186.655 214.75 183.629 221.352 177.712 223.541V223.642Z" fill="#89CEEC"/>
</g>
<g style="mix-blend-mode:screen">
<path d="M91.1057 244.593C90.6014 244.762 90.0635 244.526 89.8954 244.021L89.7609 243.718C88.685 241.865 87.441 239.171 87.3066 238.059C87.3066 237.924 87.3066 237.79 87.3402 237.655C87.441 237.318 87.6428 236.88 87.8445 236.442C88.416 235.263 89.1893 233.613 88.4833 231.659L86.6678 226.708C85.9617 224.754 84.2807 224.047 83.0703 223.508C82.566 223.272 82.0953 223.07 81.7255 222.801C79.641 221.285 77.254 214.818 77.8591 212.325C77.96 211.888 78.1953 211.416 78.4307 210.944C79.0022 209.732 79.7755 208.081 79.0695 206.162L77.254 201.21C76.5479 199.257 74.8669 198.549 73.6565 198.01C73.1522 197.775 72.6479 197.572 72.3117 197.303C70.2272 195.787 67.8401 189.32 68.4453 186.828C68.5462 186.39 68.7815 185.918 69.0169 185.413C69.5884 184.234 70.3617 182.584 69.6557 180.63L67.8401 175.679C67.1341 173.725 65.4531 173.018 64.2763 172.479C63.772 172.243 63.3013 172.041 62.9315 171.772C60.847 170.256 58.4599 163.789 59.0651 161.296C59.166 160.858 59.4013 160.387 59.6367 159.882C60.2082 158.669 60.9815 157.052 60.2755 155.099L58.4263 150.147C57.7203 148.194 56.0392 147.486 54.8625 146.947C54.3582 146.712 53.8875 146.51 53.5177 146.24C51.4332 144.724 49.0461 138.257 49.6513 135.765C49.7522 135.327 49.9875 134.855 50.2228 134.35C50.7944 133.138 51.5677 131.487 50.8616 129.567L49.0461 124.616C48.3401 122.662 46.6927 121.955 45.4823 121.416C45.1125 121.248 44.7427 121.079 44.4737 120.944C44.3056 120.843 44.1711 120.709 44.0702 120.54C43.734 119.867 43.3306 118.385 43.0952 117.071L42.9944 116.768C35.7659 97.1644 49.584 73.5529 62.3599 64.0207L63.503 63.1786L57.2496 46.2699C57.0815 45.7647 57.3168 45.2257 57.8211 45.0236C58.3254 44.8552 58.8634 45.091 59.0651 45.5962L65.5539 63.1786C65.6884 63.5828 65.5539 64.0207 65.2177 64.2901L63.503 65.5701C51.1978 74.7318 37.8504 97.4002 44.7763 116.128L44.8771 116.364L44.978 116.768C45.1797 117.778 45.4823 118.89 45.684 119.462C45.8521 119.563 46.0539 119.631 46.2556 119.732C47.6004 120.338 49.853 121.315 50.8616 124.01L52.6772 128.961C53.6858 131.655 52.6099 133.879 51.9711 135.226C51.7694 135.63 51.6013 136.034 51.5341 136.27C51.1306 138.022 53.2487 143.714 54.6608 144.758C54.8625 144.893 55.266 145.095 55.6694 145.263C57.0142 145.87 59.2668 146.846 60.2755 149.575L62.091 154.526C63.0996 157.221 62.0237 159.444 61.3849 160.791C61.1832 161.195 61.0151 161.566 60.9479 161.835C60.5444 163.553 62.6625 169.279 64.0746 170.323C64.2763 170.458 64.6798 170.66 65.0832 170.828C66.4281 171.435 68.6807 172.411 69.6893 175.14L71.5048 180.091C72.5134 182.786 71.4376 185.009 70.7988 186.356C70.597 186.76 70.4289 187.165 70.3617 187.4C69.9582 189.118 72.0764 194.844 73.4884 195.888C73.6901 196.023 74.0936 196.191 74.4634 196.394C75.8419 197 78.0945 198.01 79.0695 200.705L80.885 205.656C81.8936 208.351 80.8178 210.574 80.179 211.921C79.9772 212.325 79.8091 212.73 79.7419 212.965C79.3384 214.717 81.4566 220.409 82.9022 221.453C83.104 221.588 83.5074 221.79 83.9109 221.959C85.2557 222.565 87.5083 223.542 88.5169 226.27L90.3324 231.221C91.3411 233.916 90.2652 236.139 89.6264 237.486C89.4919 237.756 89.3911 237.992 89.2902 238.227C89.4919 239.002 90.3324 241.023 91.4755 242.977L91.7445 243.583C91.9126 244.088 91.6773 244.627 91.173 244.796L91.1057 244.593Z" fill="#A7D8EA"/>
</g>
<g style="mix-blend-mode:multiply">
<path opacity="0.3" d="M131.856 93.6282L61.9243 119.564C61.42 119.732 60.8821 119.496 60.714 118.991C60.5459 118.52 60.7812 117.947 61.2855 117.779L131.217 91.843C131.721 91.6746 132.259 91.9103 132.427 92.4156C132.595 92.9208 132.36 93.4597 131.856 93.6282Z" fill="#89CEEC"/>
</g>
<g style="mix-blend-mode:screen">
<path d="M115.685 110.872L53.0829 134.113C52.5786 134.282 52.0407 134.046 51.839 133.541C51.6709 133.035 51.9062 132.497 52.4105 132.328L115.012 109.087C115.517 108.919 116.055 109.154 116.223 109.66C116.391 110.165 116.156 110.704 115.651 110.906L115.685 110.872Z" fill="#ADD0E3"/>
</g>
<g style="mix-blend-mode:multiply">
<path opacity="0.3" d="M141.233 118.924L71.3013 144.893C70.797 145.062 70.259 144.826 70.0909 144.321C69.9228 143.816 70.1582 143.277 70.6625 143.108L140.594 117.139C141.098 116.97 141.636 117.206 141.804 117.711C141.972 118.183 141.737 118.756 141.233 118.924Z" fill="#89CEEC"/>
</g>
<g style="mix-blend-mode:screen">
<path d="M125.027 136.168L62.4247 159.409C61.9204 159.578 61.3825 159.342 61.1808 158.837C61.0127 158.331 61.248 157.792 61.7523 157.624L124.354 134.383C124.859 134.215 125.396 134.45 125.598 134.956C125.766 135.461 125.531 136 125.027 136.168Z" fill="#ADD0E3"/>
</g>
<g style="mix-blend-mode:multiply">
<path opacity="0.3" d="M150.582 144.185L80.6509 170.155C80.1466 170.323 79.6086 170.087 79.4405 169.582C79.2724 169.077 79.5078 168.538 80.0121 168.369L149.943 142.434C150.448 142.265 150.986 142.501 151.154 143.006C151.322 143.512 151.086 144.051 150.582 144.219V144.185Z" fill="#89CEEC"/>
</g>
<g style="mix-blend-mode:screen">
<path d="M134.378 161.463L71.7759 184.704C71.2716 184.872 70.7336 184.636 70.5655 184.131C70.3974 183.626 70.6328 183.087 71.1371 182.885L133.739 159.644C134.243 159.475 134.781 159.711 134.983 160.216C135.151 160.722 134.916 161.261 134.411 161.429L134.378 161.463Z" fill="#ADD0E3"/>
</g>
<g style="mix-blend-mode:multiply">
<path opacity="0.3" d="M159.928 169.482L89.9966 195.452C89.4923 195.62 88.9543 195.384 88.7862 194.913C88.6181 194.407 88.8535 193.868 89.3578 193.7L159.289 167.731C159.793 167.562 160.331 167.798 160.499 168.303C160.667 168.809 160.432 169.347 159.928 169.516V169.482Z" fill="#89CEEC"/>
</g>
<g style="mix-blend-mode:screen">
<path d="M143.722 186.727L81.1196 209.968C80.6153 210.136 80.0774 209.9 79.9093 209.395C79.7412 208.89 79.9765 208.351 80.4808 208.183L143.083 184.942C143.587 184.773 144.125 185.009 144.293 185.514C144.461 186.019 144.226 186.558 143.722 186.727Z" fill="#ADD0E3"/>
</g>
<g style="mix-blend-mode:multiply">
<path opacity="0.3" d="M169.274 194.778L99.3423 220.714C98.838 220.882 98.3 220.646 98.1319 220.141C97.9638 219.636 98.1992 219.097 98.7035 218.928L168.635 192.993C169.139 192.824 169.677 193.06 169.845 193.532C170.013 194.037 169.778 194.576 169.274 194.744V194.778Z" fill="#89CEEC"/>
</g>
<g style="mix-blend-mode:screen">
<path d="M153.068 212.024L90.4658 235.265C89.9614 235.433 89.4235 235.197 89.2218 234.692C89.0537 234.187 89.289 233.648 89.7933 233.48L152.395 210.238C152.9 210.07 153.437 210.306 153.639 210.811C153.807 211.316 153.572 211.855 153.068 212.057V212.024Z" fill="#ADD0E3"/>
</g>
<g style="mix-blend-mode:screen">
<path opacity="0.2" d="M66.763 70.1507C56.206 78.0324 44.1698 98.1747 50.0198 114.006L50.3224 114.78L50.4233 115.285C52.3396 116.397 54.794 118.351 56.1052 121.887L57.9207 126.839C59.6354 131.487 58.1224 135.293 57.2147 137.213C57.4164 138.055 57.8535 139.234 58.2569 140.042C60.1733 140.918 63.8043 142.804 65.519 147.452L67.3345 152.404C69.0492 157.052 67.5362 160.858 66.6285 162.778C66.8302 163.654 67.2673 164.799 67.6707 165.607C69.5871 166.483 73.2181 168.369 74.9328 173.018L76.7483 177.969C78.463 182.617 76.9501 186.423 76.0423 188.343C76.244 189.219 76.6811 190.364 77.0845 191.173C79.0009 192.048 82.632 193.935 84.3466 198.583L86.1621 203.534C87.8768 208.182 86.3639 211.988 85.4561 213.908C85.6578 214.75 86.0949 215.929 86.4984 216.738C88.4147 217.613 92.0458 219.5 93.7604 224.148L95.576 229.099C96.988 232.905 96.2148 236.139 95.4079 238.261C95.6768 238.833 96.013 239.44 96.282 239.945L96.7191 240.652L97.0217 241.427C97.7277 243.347 99.8794 244.324 101.796 243.616L113.462 239.271C112.151 239.743 110.504 238.598 109.798 236.644L109.495 235.869L109.125 235.128C108.856 234.623 108.587 233.983 108.318 233.411C108.688 231.491 108.89 228.426 107.511 224.619L105.696 219.668C103.981 215.02 101.191 212.83 99.7113 211.786C99.3415 210.978 98.9044 209.799 98.6691 208.957C99.1061 207.205 99.8122 203.702 98.0975 199.054L96.282 194.103C94.5673 189.455 91.7768 187.265 90.2975 186.221C89.9277 185.446 89.4906 184.268 89.2553 183.392C89.6923 181.64 90.3984 178.137 88.6837 173.489L86.8682 168.538C85.1535 163.89 82.363 161.7 80.8837 160.656C80.5139 159.881 80.0768 158.702 79.8414 157.827C80.2785 156.075 80.9846 152.572 79.2699 147.924L77.4544 142.973C75.7397 138.324 72.9492 136.135 71.4699 135.091C71.1 134.282 70.663 133.137 70.4276 132.262C70.8647 130.51 71.5707 127.007 69.8561 122.359L68.0405 117.407C66.7293 113.871 64.7793 111.749 63.2664 110.469L63.1319 109.964L62.8293 109.189C56.9793 93.358 63.5354 75.2368 70.3268 68.7697L73.6552 65.6035L66.7966 70.0833L66.763 70.1507Z" fill="#A7D8EA"/>
</g>
<path d="M47.1368 34.9981L80.9647 22.4416C82.0681 22.032 83.3095 22.577 83.73 23.7141L87.8883 34.9581C88.2971 36.0636 87.7216 37.3189 86.6182 37.7285L52.7903 50.285C51.6869 50.6946 50.4339 50.118 50.0251 49.0126L45.8667 37.7685C45.4579 36.663 46.0136 35.451 47.117 35.0414L47.1368 34.9981Z" fill="#297AC1"/>
<path d="M74.9658 0.967552L37.8148 14.7438C33.8812 16.2258 31.8639 20.6382 33.3096 24.5791L45.245 56.8808C46.6571 60.6869 50.7924 62.6742 54.6252 61.4953L54.8941 62.169C55.2976 63.2805 56.5416 63.8531 57.6174 63.4152L91.4736 50.8516C92.583 50.4474 93.1546 49.2011 92.7511 48.1233L92.5158 47.4496C96.2477 45.8666 98.1305 41.6225 96.7184 37.7827L84.7494 5.48103C83.2701 1.54016 78.8994 -0.514485 74.9321 0.967552H74.9658ZM93.1546 39.0963C93.8606 40.9489 92.9865 43.0035 91.2046 43.8456L90.8011 42.8014C90.3977 41.6899 89.1537 41.1173 88.0442 41.5215L54.1881 54.0851C53.0786 54.4893 52.5071 55.7356 52.9105 56.8471L53.314 57.8913C51.4648 58.3628 49.5148 57.3524 48.8088 55.5335L36.907 23.2655C36.1674 21.2782 37.176 19.0888 39.1596 18.3478L76.277 4.5716C78.2606 3.83058 80.4459 4.84106 81.1856 6.82834L93.121 39.13L93.1546 39.0963Z" fill="#297AC1"/>
<path d="M80.9846 22.4571L63.6699 28.8905L69.3182 44.1487L86.6329 37.7153C87.7424 37.3111 88.314 36.0649 87.8769 34.9534L83.7079 23.7033C83.3045 22.5918 82.0605 22.0192 80.951 22.4571H80.9846Z" fill="#1775B9"/>
<path d="M74.9664 0.967552L55.9707 8.00723L57.2819 11.5776L76.2777 4.5716C78.2613 3.83058 80.4466 4.84106 81.1863 6.82834L93.1217 39.13C93.8277 40.9826 92.9536 43.0372 91.1717 43.8793L90.7682 42.8351C90.3648 41.7236 89.1208 41.151 88.0113 41.5552L70.6966 47.9886L74.1595 57.3187L91.4742 50.8853C92.5837 50.4811 93.1553 49.2348 92.7518 48.157L92.5165 47.4833C96.2484 45.9002 98.1312 41.6562 96.7191 37.8164L84.7501 5.48103C83.2708 1.54016 78.9001 -0.514485 74.9328 0.967552H74.9664Z" fill="#1775B9"/>
<g style="mix-blend-mode:multiply" opacity="0.1">
<path d="M150.278 134.923C150.077 134.047 149.64 132.902 149.236 132.094C147.32 131.218 143.689 129.332 141.974 124.683L140.159 119.732C138.444 115.084 139.957 111.278 140.865 109.358C140.663 108.516 140.226 107.337 139.822 106.528C137.906 105.653 134.275 103.766 132.56 99.1182L130.745 94.1669C129.434 90.6302 130.005 87.5651 130.745 85.4431L130.476 85.0052L130.173 84.2305C124.323 68.3996 102.1 60.9558 88.9542 61.8989L80.8516 62.9767L85.424 63.2125C94.7706 63.6841 111.547 73.1489 117.397 88.9798L117.7 89.7545L117.935 90.226C117.599 92.1796 117.532 95.0426 118.843 98.613L119.246 99.6572L97.662 107.674C96.3171 108.179 95.6447 109.661 96.1154 111.008C96.6197 112.356 98.099 113.029 99.4439 112.558L121.062 104.541C122.777 108.516 125.298 110.503 126.643 111.446C127.013 112.221 127.45 113.4 127.685 114.275C127.248 116.027 126.542 119.53 128.257 124.178L128.559 125.054L106.975 133.07C105.63 133.576 104.958 135.058 105.428 136.405C105.933 137.752 107.412 138.426 108.757 137.954L130.375 129.938C132.09 134.013 134.645 136.068 136.057 137.045C136.427 137.853 136.864 138.999 137.099 139.874C136.662 141.626 135.956 145.129 137.671 149.777L137.906 150.451L116.321 158.467C114.977 158.972 114.304 160.454 114.775 161.802C115.279 163.149 116.759 163.856 118.103 163.351L139.722 155.335C141.436 159.545 144.059 161.633 145.471 162.61C145.841 163.385 146.278 164.564 146.513 165.439C146.076 167.191 145.37 170.694 147.085 175.342L147.253 175.814L125.668 183.83C124.323 184.335 123.651 185.817 124.122 187.165C124.626 188.512 126.105 189.186 127.45 188.714L149.068 180.698C150.783 185.043 153.472 187.165 154.885 188.175C155.254 188.95 155.691 190.129 155.927 191.005C155.49 192.756 154.784 196.259 156.498 200.907L156.599 201.177L135.015 209.193C133.67 209.698 132.997 211.18 133.468 212.528C133.939 213.875 135.452 214.582 136.797 214.077L158.381 206.061C159.793 209.732 161.878 211.854 163.391 213.067C163.592 213.707 163.76 214.38 163.895 214.886L164.097 215.694L164.399 216.469C165.105 218.389 164.635 220.342 163.323 220.847L174.99 216.502C176.906 215.795 177.915 213.639 177.175 211.719L176.873 210.945L176.704 210.136C176.604 209.597 176.435 208.924 176.267 208.284C174.284 207.206 171.594 205.252 170.182 201.446L168.366 196.495C166.652 191.847 168.165 188.04 169.073 186.121C168.871 185.245 168.434 184.066 168.03 183.291C166.114 182.415 162.483 180.529 160.768 175.881L158.953 170.93C157.238 166.281 158.751 162.475 159.659 160.555C159.457 159.68 159.02 158.534 158.616 157.726C156.7 156.85 153.069 154.964 151.354 150.316L149.539 145.365C147.824 140.716 149.337 136.91 150.245 134.99L150.278 134.923Z" fill="#89CEEC"/>
</g>
</g>
<defs>
<clipPath id="clip0_216_2393">
<rect width="154.286" height="252.957" fill="white" transform="translate(32.8438 0.493164)"/>
</clipPath>
</defs>
</svg>
