<svg width="1322" height="138" viewBox="0 0 1322 138" fill="none" xmlns="http://www.w3.org/2000/svg">
<path d="M1322 136.99H1196.38C1197.69 133.842 1198.9 130.025 1198.9 126.704C1198.9 123.678 1197.5 120.887 1197.5 120.887V79.7019C1197.5 79.7019 1199.59 77.0284 1199.59 72.2578C1199.59 67.4872 1196.92 49.4559 1179.1 37.3534C1180.61 36.9758 1181.06 36.8891 1181.06 36.8891V36.3483L1184.17 35.4962L1184.72 22.4447C1184.87 19.0721 1182.17 16.2608 1178.79 16.2608H1164.27C1160.89 16.2608 1158.19 19.0721 1158.33 22.4447L1158.89 35.4962L1162 36.3483V36.8891C1162 36.8891 1162.45 36.9809 1163.96 37.3534C1146.14 49.4559 1143.46 67.4872 1143.46 72.2578C1143.46 77.0284 1145.56 79.7019 1145.56 79.7019V120.887C1145.56 120.887 1144.16 123.678 1144.16 126.704C1144.16 130.025 1145.37 133.842 1146.67 136.99H1134.81C1135.49 135.541 1135.87 133.923 1135.87 132.219V127.75C1135.87 127.168 1135.67 126.607 1135.31 126.153L1133.54 123.938V118.112L1134.99 116.836C1135.55 116.351 1135.87 115.647 1135.87 114.907V112.545C1135.87 112.116 1135.76 111.693 1135.56 111.32L1134.7 109.759V67.7117L1135.58 66.0331C1135.77 65.6657 1135.87 65.2626 1135.87 64.8493V61.5992C1135.87 61.0278 1135.68 60.4716 1135.33 60.0226L1133.44 57.6093V52.8489L1135.19 50.9611C1135.63 50.4866 1135.87 49.8692 1135.87 49.2212V44.7874C1135.87 41.2923 1131.99 37.7973 1119.05 31.7767C1106.12 25.756 1104.38 20.414 1104.38 17.7914C1104.38 15.5669 1105.08 12.7862 1105.29 11.9902C1105.33 11.8371 1105.35 11.6841 1105.35 11.5259V2.80109C1105.35 1.80615 1104.54 1 1103.54 1H1091.05C1090.05 1 1089.24 1.80615 1089.24 2.80109V11.5361C1089.24 11.6943 1089.26 11.8473 1089.31 12.0004C1089.52 12.7964 1090.21 15.5771 1090.21 17.8017C1090.21 20.4242 1088.46 25.7662 1075.54 31.7869C1062.61 37.8075 1058.72 41.3025 1058.72 44.7976V49.2314C1058.72 49.8743 1058.96 50.4968 1059.4 50.9713L1061.15 52.8591V57.6195L1059.27 60.0328C1058.91 60.4818 1058.72 61.038 1058.72 61.6094V64.8595C1058.72 65.2728 1058.83 65.6759 1059.01 66.0433L1059.89 67.7219V109.769L1059.04 111.331C1058.83 111.708 1058.72 112.127 1058.72 112.555V114.918C1058.72 115.657 1059.04 116.356 1059.6 116.846L1061.05 118.122V123.949L1059.28 126.163C1058.92 126.617 1058.72 127.178 1058.72 127.76V132.229C1058.72 133.934 1059.1 135.551 1059.78 137H1045.13V136.969C1045.13 134.842 1044.33 133.724 1044.33 133.724C1044.33 133.724 1043.16 127.341 1043.16 119.79C1043.16 112.239 1044.22 106.387 1044.22 105.376C1044.22 104.366 1045.13 104.045 1045.13 102.56C1045.13 101.075 1044.43 100.754 1044.43 100.754V79.2682C1044.43 79.2682 1045.13 78.6305 1045.13 76.9824C1045.13 69.9108 1036.74 62.385 1036.74 62.385V60.7012C1037.39 60.7012 1037.92 60.1706 1037.92 59.5175V55.5633C1037.92 54.9102 1037.39 54.3796 1036.74 54.3796H1029.57C1028.91 54.3796 1028.38 54.9102 1028.38 55.5633V59.5175C1028.38 60.1706 1028.91 60.7012 1029.57 60.7012V62.385C1029.57 62.385 1021.18 69.9056 1021.18 76.9824C1021.18 78.6305 1021.87 79.2682 1021.87 79.2682V100.754C1021.87 100.754 1021.18 101.075 1021.18 102.56C1021.18 104.045 1022.08 104.366 1022.08 105.376C1022.08 106.387 1023.14 112.239 1023.14 119.79C1023.14 127.341 1021.97 133.724 1021.97 133.724C1021.97 133.724 1021.18 134.842 1021.18 136.969V137H1006.37C1006.38 136.337 1006.38 135.76 1006.38 135.342C1006.38 132.862 1005.45 131.556 1005.45 131.556C1005.45 131.556 1004.08 124.112 1004.08 115.305C1004.08 106.499 1005.32 99.6721 1005.32 98.4935C1005.32 97.3148 1006.38 96.9424 1006.38 95.2076C1006.38 93.4729 1005.57 93.1004 1005.57 93.1004V68.0433C1005.57 68.0433 1006.38 67.2984 1006.38 65.3749C1006.38 57.1246 996.595 48.3538 996.595 48.3538V46.3895C997.356 46.3895 997.974 45.7721 997.974 45.0119V40.3994C997.974 39.6392 997.356 39.0218 996.595 39.0218H988.23C987.469 39.0218 986.851 39.6392 986.851 40.3994V45.0119C986.851 45.7721 987.469 46.3895 988.23 46.3895V48.3538C988.23 48.3538 978.444 57.1246 978.444 65.3749C978.444 67.2984 979.251 68.0433 979.251 68.0433V93.1004C979.251 93.1004 978.444 93.4729 978.444 95.2076C978.444 96.9424 979.501 97.3148 979.501 98.4935C979.501 99.6721 980.742 106.494 980.742 115.305C980.742 124.117 979.379 131.556 979.379 131.556C979.379 131.556 978.449 132.857 978.449 135.342C978.449 135.76 978.449 136.337 978.454 137H965.676C965.686 136.867 965.697 136.73 965.697 136.592V124.056C965.697 122.454 964.394 121.152 962.791 121.152V64.4156C962.791 64.4156 965.697 63.4156 965.697 60.3135C965.697 46.3384 948.455 30.4042 941.821 24.7866C940.192 23.409 939.257 21.3885 939.257 19.2558V19.1946C940.084 19.1946 940.758 18.5211 940.758 17.6945V12.8933C940.758 12.0667 940.084 11.3932 939.257 11.3932H920.575C919.748 11.3932 919.073 12.0667 919.073 12.8933V17.6945C919.073 18.5211 919.748 19.1946 920.575 19.1946V19.2558C920.575 21.3885 919.64 23.409 918.011 24.7866C911.377 30.4042 894.135 46.3384 894.135 60.3135C894.135 63.4156 897.041 64.4156 897.041 64.4156V121.142C895.438 121.142 894.135 122.443 894.135 124.045V136.99H0" stroke="white" stroke-miterlimit="10"/>
</svg>
