<svg width="120" height="120" viewBox="0 0 120 120" fill="none" xmlns="http://www.w3.org/2000/svg">
<path d="M60 0C27 0 0 26.7692 0 60C0 93.2308 26.7692 120 60 120C93.2308 120 120 93.2308 120 60C120 26.7692 93.2308 0 60 0Z" fill="#72B42C"/>
<path d="M44.991 35.284C45.112 35.8702 44.6434 36.3939 44.0448 36.3939H40.5321C40.0337 36.3939 39.6219 36.0231 39.4833 35.5443C39.3736 35.1656 39.2282 34.8141 39.047 34.4899C38.7369 33.9267 38.3388 33.4476 37.8527 33.0525C37.3666 32.6574 36.8051 32.3548 36.1681 32.1446C35.5395 31.9344 34.8565 31.8294 34.119 31.8294C32.7864 31.8294 31.6256 32.1614 30.6366 32.8255C29.6477 33.4812 28.8808 34.4395 28.3361 35.7004C27.7913 36.953 27.5189 38.4745 27.5189 40.265C27.5189 42.106 27.7913 43.6527 28.3361 44.9052C28.8892 46.1578 29.6603 47.1035 30.6492 47.7423C31.6382 48.3812 32.7822 48.7006 34.0812 48.7006C34.8104 48.7006 35.4851 48.604 36.1053 48.4106C36.7338 48.2173 37.2912 47.9357 37.7773 47.5658C38.2634 47.1875 38.6657 46.7294 38.9841 46.1914C39.1767 45.8745 39.3343 45.5314 39.457 45.162C39.6099 44.702 40.0162 44.352 40.501 44.3543L44.0471 44.3705C44.6449 44.3732 45.1107 44.8983 44.9719 45.4797C44.7821 46.2747 44.4917 47.0499 44.1008 47.8054C43.5392 48.8982 42.7808 49.8775 41.8253 50.7434C40.8783 51.6008 39.7468 52.2817 38.431 52.7861C37.1236 53.282 35.6443 53.53 33.9932 53.53C31.6968 53.53 29.6435 53.0088 27.8332 51.9665C26.0313 50.9241 24.6065 49.4152 23.5589 47.4397C22.5196 45.4643 22 43.0727 22 40.265C22 37.4489 22.528 35.0532 23.584 33.0777C24.64 31.1022 26.0732 29.5975 27.8835 28.5636C29.6938 27.5212 31.7304 27 33.9932 27C35.4851 27 36.8679 27.2102 38.1419 27.6305C39.4242 28.0508 40.5598 28.6644 41.5487 29.4714C42.5377 30.27 43.3423 31.2493 43.9625 32.4094C44.4311 33.2742 44.7739 34.2324 44.991 35.284Z" fill="white"/>
<path d="M54.4786 53.5426C53.2466 53.5426 52.1486 53.3283 51.1848 52.8995C50.221 52.4624 49.4583 51.8193 48.8968 50.9703C48.3437 50.1129 48.0671 49.0453 48.0671 47.7676C48.0671 46.6916 48.264 45.7879 48.6579 45.0565C49.0519 44.3252 49.5882 43.7368 50.2671 43.2912C50.946 42.8457 51.717 42.5095 52.5803 42.2825C53.4519 42.0555 54.3654 41.8958 55.3209 41.8033C56.4439 41.6857 57.3491 41.5764 58.0363 41.4755C58.7236 41.3662 59.2222 41.2065 59.5323 40.9963C59.8424 40.7862 59.9975 40.4752 59.9975 40.0633V39.9876C59.9975 39.189 59.746 38.5712 59.2432 38.134C58.7487 37.6969 58.0447 37.4783 57.1312 37.4783C56.1673 37.4783 55.4005 37.6927 54.8306 38.1214C54.499 38.3659 54.2327 38.6474 54.0316 38.9659C53.7776 39.3683 53.3582 39.6824 52.8839 39.6438L49.8805 39.3991C49.2791 39.3501 48.8514 38.7794 49.066 38.2154C49.3425 37.4889 49.7303 36.8355 50.2294 36.2552C50.9669 35.3894 51.9182 34.7253 53.0831 34.263C54.2565 33.7922 55.6142 33.5568 57.1563 33.5568C58.2291 33.5568 59.2558 33.6829 60.2363 33.9351C61.2253 34.1873 62.1011 34.5782 62.8638 35.1078C63.6348 35.6374 64.2425 36.3183 64.6867 37.1505C65.1308 37.9743 65.3529 38.962 65.3529 40.1137V52.177C65.3529 52.7292 64.9052 53.177 64.3529 53.177H61.274C60.7218 53.177 60.274 52.7292 60.274 52.177V50.4912H60.1232C59.8131 51.0964 59.3982 51.6302 58.8786 52.0926C58.359 52.5465 57.7346 52.9037 57.0054 53.1643C56.2763 53.4165 55.434 53.5426 54.4786 53.5426ZM56.0123 49.8355C56.8001 49.8355 57.4957 49.68 58.0992 49.3689C58.7026 49.0495 59.1761 48.6208 59.5198 48.0828C59.8634 47.5448 60.0352 46.9353 60.0352 46.2544V44.1991C59.8676 44.3084 59.6371 44.4093 59.3438 44.5017C59.0588 44.5858 58.7361 44.6657 58.3757 44.7413C58.0154 44.8086 57.655 44.8716 57.2946 44.9305C56.9342 44.9809 56.6073 45.0271 56.314 45.0692C55.6854 45.1616 55.1365 45.3087 54.6671 45.5105C54.1978 45.7122 53.8332 45.9854 53.5734 46.3301C53.3136 46.6663 53.1837 47.0866 53.1837 47.591C53.1837 48.3224 53.4477 48.8814 53.9757 49.2681C54.5121 49.6463 55.191 49.8355 56.0123 49.8355Z" fill="white"/>
<path d="M30.0781 92.0001C29.5258 92.0001 29.0781 91.5524 29.0781 91.0001V62.9185C29.0781 62.3662 29.5258 61.9185 30.0781 61.9185H34.5186C35.0709 61.9185 35.5186 62.3662 35.5186 62.9185V75.182H35.9202L46.5825 62.2814C46.7725 62.0515 47.0551 61.9185 47.3533 61.9185H52.4573C53.3068 61.9185 53.7694 62.9106 53.2233 63.5613L43.2978 75.3876L53.657 90.433C54.1138 91.0964 53.6388 92.0001 52.8333 92.0001H47.5628C47.2304 92.0001 46.9198 91.8349 46.7339 91.5594L38.6868 79.6325L35.5186 83.4515V91.0001C35.5186 91.5524 35.0709 92.0001 34.5186 92.0001H30.0781Z" fill="white"/>
<path d="M59.1597 62.9185C59.1597 62.3662 59.6074 61.9185 60.1597 61.9185H63.3187C63.7238 61.9185 64.0889 62.1629 64.2433 62.5375L69.088 74.2944H69.305L74.1497 62.5375C74.304 62.1629 74.6691 61.9185 75.0743 61.9185H78.2333C78.7856 61.9185 79.2333 62.3662 79.2333 62.9185V79.3384C79.2333 79.8907 78.7856 80.3384 78.2333 80.3384H76.4356C75.8833 80.3384 75.4356 79.8907 75.4356 79.3384V68.3492H75.2819L70.7418 79.622C70.5893 80.0005 70.2222 80.2485 69.8142 80.2485H68.5797C68.1712 80.2485 67.8037 80 67.6516 79.6208L63.1111 68.3043H62.9574V79.3384C62.9574 79.8907 62.5097 80.3384 61.9574 80.3384H60.1597C59.6074 80.3384 59.1597 79.8907 59.1597 79.3384V62.9185Z" fill="white"/>
<path d="M88.6439 85.8068C87.3961 85.8068 86.3261 85.6359 85.4339 85.2942C84.5478 84.9584 83.8425 84.4997 83.3181 83.9181C83.0512 83.6221 82.8319 83.3074 82.6602 82.9741C82.3929 82.4552 82.7913 81.8911 83.3698 81.8137L85.0825 81.5845C85.5385 81.5235 85.9669 81.7969 86.2706 82.1425C86.3037 82.1801 86.3383 82.2173 86.3743 82.2541C86.6094 82.494 86.9199 82.6859 87.3057 82.8298C87.6975 82.9797 88.1737 83.0546 88.7343 83.0546C89.5722 83.0546 90.2625 82.8508 90.805 82.443C91.3535 82.0413 91.6278 81.3667 91.6278 80.4193V77.892H91.4651C91.2963 78.2757 91.0431 78.6385 90.7055 78.9803C90.368 79.3221 89.9339 79.6009 89.4035 79.8167C88.873 80.0326 88.24 80.1405 87.5046 80.1405C86.4617 80.1405 85.5123 79.9007 84.6563 79.421C83.8064 78.9353 83.1282 78.1948 82.6218 77.1995C82.1215 76.1981 81.8713 74.9329 81.8713 73.4039C81.8713 71.839 82.1275 70.5318 82.6399 69.4825C83.1523 68.4332 83.8335 67.6477 84.6834 67.126C85.5394 66.6044 86.4768 66.3436 87.4956 66.3436C88.2732 66.3436 88.9242 66.4755 89.4487 66.7393C89.9731 66.9971 90.3951 67.3209 90.7146 67.7107C91.0401 68.0944 91.2902 68.4722 91.4651 68.8439H91.6097V67.5234C91.6097 66.9712 92.0575 66.5234 92.6097 66.5234H94.4346C94.9869 66.5234 95.4346 66.9712 95.4346 67.5234V80.4733C95.4346 81.6485 95.1452 82.6319 94.5665 83.4234C93.9878 84.2149 93.1861 84.8085 92.1613 85.2042C91.1426 85.6059 89.9701 85.8068 88.6439 85.8068ZM88.7253 77.2624C89.3462 77.2624 89.8706 77.1095 90.2986 76.8037C90.7326 76.4919 91.0642 76.0482 91.2933 75.4726C91.5284 74.891 91.6459 74.1954 91.6459 73.3859C91.6459 72.5765 91.5314 71.8749 91.3023 71.2813C91.0732 70.6817 90.7417 70.217 90.3077 69.8872C89.8736 69.5575 89.3462 69.3926 88.7253 69.3926C88.0923 69.3926 87.5588 69.5635 87.1248 69.9052C86.6908 70.241 86.3623 70.7087 86.1392 71.3083C85.9162 71.9079 85.8047 72.6005 85.8047 73.3859C85.8047 74.1834 85.9162 74.873 86.1392 75.4546C86.3683 76.0302 86.6968 76.4769 87.1248 76.7947C87.5588 77.1065 88.0923 77.2624 88.7253 77.2624Z" fill="white"/>
<path d="M84.9084 39.3867C85.4607 39.3867 85.9084 39.8344 85.9084 40.3867V52.3451C85.9084 52.8974 85.4607 53.3451 84.9084 53.3451H83.8758C83.5479 53.3451 83.2408 53.1843 83.054 52.9148L77.2626 44.5598H77.1601V52.3451C77.1601 52.8974 76.7124 53.3451 76.1601 53.3451H75.2007C74.6484 53.3451 74.2007 52.8974 74.2007 52.3451V40.3867C74.2007 39.8344 74.6484 39.3867 75.2007 39.3867H76.2721C76.6012 39.3867 76.9093 39.5487 77.0959 39.8198L82.8396 48.1652H82.9627V40.3867C82.9627 39.8344 83.4104 39.3867 83.9627 39.3867H84.9084Z" fill="white"/>
<path d="M91.2923 53.5428C90.6226 53.5428 90.0257 53.4269 89.5017 53.1952C88.9777 52.9589 88.5631 52.6113 88.2578 52.1524C87.9571 51.6889 87.8067 51.1119 87.8067 50.4212C87.8067 49.8396 87.9138 49.3512 88.1279 48.9559C88.3421 48.5606 88.6337 48.2425 89.0027 48.0017C89.3718 47.7609 89.791 47.5791 90.2603 47.4564C90.7342 47.3337 91.2308 47.2474 91.7503 47.1974C92.3608 47.1338 92.8529 47.0747 93.2265 47.0202C93.6002 46.9612 93.8713 46.8748 94.0399 46.7612C94.2084 46.6476 94.2927 46.4795 94.2927 46.2569V46.216C94.2927 45.7843 94.156 45.4504 93.8827 45.2141C93.6138 44.9778 93.2311 44.8597 92.7344 44.8597C92.2105 44.8597 91.7936 44.9755 91.4837 45.2073C91.4119 45.26 91.3456 45.3158 91.2851 45.3749C90.9448 45.7064 90.5286 46.0385 90.0551 46.0001L89.3123 45.94C88.7101 45.8912 88.2766 45.3103 88.5717 44.7832C88.6883 44.5751 88.8251 44.3802 88.9822 44.1986C89.3832 43.7305 89.9004 43.3716 90.5337 43.1217C91.1716 42.8672 91.9097 42.74 92.7481 42.74C93.3313 42.74 93.8895 42.8082 94.4226 42.9445C94.9603 43.0808 95.4364 43.2921 95.851 43.5783C96.2702 43.8646 96.6006 44.2326 96.842 44.6825C97.0835 45.1278 97.2043 45.6616 97.2043 46.2841V52.3451C97.2043 52.8974 96.7566 53.3451 96.2043 53.3451H95.4431C94.8908 53.3451 94.4431 52.8974 94.4431 52.3451V51.8934H94.3611C94.1925 52.2205 93.967 52.5091 93.6845 52.759C93.402 53.0043 93.0625 53.1975 92.6661 53.3383C92.2697 53.4746 91.8118 53.5428 91.2923 53.5428ZM92.1262 51.539C92.5545 51.539 92.9326 51.4549 93.2607 51.2868C93.5888 51.1141 93.8462 50.8824 94.033 50.5916C94.2198 50.3008 94.3132 49.9714 94.3132 49.6033V48.4924C94.2221 48.5515 94.0968 48.606 93.9373 48.656C93.7824 48.7014 93.607 48.7446 93.4111 48.7855C93.2151 48.8218 93.0192 48.8559 92.8233 48.8877C92.6274 48.915 92.4497 48.94 92.2902 48.9627C91.9485 49.0127 91.65 49.0922 91.3949 49.2012C91.1397 49.3103 90.9415 49.4579 90.8003 49.6442C90.659 49.826 90.5884 50.0532 90.5884 50.3258C90.5884 50.7211 90.7319 51.0233 91.019 51.2323C91.3106 51.4368 91.6796 51.539 92.1262 51.539Z" fill="white"/>
</svg>
