<svg width="30" height="30" viewBox="0 0 30 30" fill="none" xmlns="http://www.w3.org/2000/svg">
<path d="M22.493 29.988H7.50166C7.41791 29.9641 7.33416 29.9402 7.25041 29.9282C6.46076 29.8205 5.68308 29.629 4.95325 29.294C2.47663 28.1452 0.885364 26.2545 0.227323 23.6099C0.131608 23.2389 0.0717862 22.868 0 22.497C0 17.495 0 12.493 0 7.50299C0.0478575 7.23973 0.095715 6.9645 0.143572 6.70124C0.933221 2.76426 4.30717 0 8.31524 0C12.766 0 17.2167 0 21.6675 0C22.2059 0 22.7443 0.047866 23.2707 0.143598C26.537 0.753889 29.1332 3.31472 29.8152 6.58157C29.9349 7.15596 29.9827 7.76625 29.9947 8.35261C30.0066 12.7802 29.9947 17.2198 29.9947 21.6474C29.9947 22.8321 29.7793 23.9809 29.2888 25.0578C28.1522 27.5229 26.2498 29.1145 23.6057 29.7726C23.2348 29.8684 22.8639 29.9282 22.493 30V29.988ZM27.3027 14.994C27.3027 12.8161 27.3027 10.6382 27.3027 8.46031C27.3027 7.79019 27.2309 7.144 27.0156 6.49781C26.2857 4.30794 24.18 2.6446 21.5718 2.65656C17.1808 2.68049 12.7899 2.65656 8.38703 2.68049C7.75291 2.68049 7.09487 2.77623 6.49665 2.96769C4.31914 3.63781 2.63216 5.76785 2.64413 8.40048C2.66806 12.7922 2.64413 17.1839 2.66806 21.5756C2.66806 22.2098 2.76377 22.868 2.9552 23.4663C3.63717 25.6562 5.76683 27.3315 8.38703 27.3195C12.778 27.2956 17.1689 27.3195 21.5718 27.3195C22.517 27.3195 23.4143 27.152 24.2518 26.7092C26.1302 25.6921 27.2189 24.1245 27.2788 21.9705C27.3506 19.649 27.2907 17.3275 27.2907 15.006L27.3027 14.994Z" fill="white"/>
<path d="M15.0152 7.2637C19.2745 7.2637 22.7441 10.7699 22.7322 15.03C22.7202 19.2781 19.2386 22.7364 14.9793 22.7244C10.7199 22.7244 7.25027 19.2302 7.26224 14.9582C7.2742 10.7101 10.7558 7.25174 15.0152 7.2637ZM20.0522 14.9821C20.0522 12.1819 17.7789 9.93223 14.9793 9.9442C12.1796 9.95616 9.95422 12.1939 9.94226 14.9941C9.94226 17.7942 12.1916 20.0559 14.9912 20.0439C17.7909 20.0439 20.0522 17.7822 20.0402 14.9821H20.0522Z" fill="white"/>
<path d="M23.0558 8.915C21.9788 8.915 21.0933 8.04144 21.0933 6.96446C21.0933 5.89944 21.9907 5.00195 23.0438 5.00195C24.1088 5.00195 25.0063 5.89944 25.0063 6.96446C25.0063 8.02948 24.1208 8.915 23.0438 8.915H23.0558Z" fill="white"/>
</svg>
