<svg width="152" height="248" viewBox="0 0 152 248" fill="none" xmlns="http://www.w3.org/2000/svg">
<path d="M143.527 193.261L141.758 188.437C141.103 186.665 142.577 185.255 143.003 183.483C143.756 180.333 141.136 173.245 138.516 171.342C137.042 170.26 135.012 170.161 134.356 168.389L132.588 163.566C131.933 161.794 133.407 160.416 133.832 158.611C134.586 155.462 131.966 148.374 129.346 146.471C127.872 145.388 125.841 145.29 125.186 143.518L123.418 138.695C122.762 136.923 124.236 135.545 124.662 133.74C125.415 130.59 122.795 123.47 120.175 121.6C118.701 120.517 116.671 120.419 116.016 118.647L114.247 113.823C113.592 112.052 115.066 110.641 115.492 108.869C116.245 105.719 113.625 98.5988 111.005 96.6958C109.531 95.613 107.5 95.5145 106.845 93.7427L105.077 88.9194C104.422 87.1475 105.896 85.7695 106.321 83.9648C106.616 82.718 104.553 79.2071 104.553 79.2071C97.2491 59.4873 71.834 50.1359 54.9343 51.3172L48.3513 33.5332L21.8226 43.3767L28.4057 61.1607C14.7156 71.3323 1.48399 95.0224 8.78756 114.742C8.78756 114.742 9.50809 118.745 10.5561 119.5C12.0299 120.583 14.0605 120.681 14.7156 122.453L16.4841 127.276C17.1392 129.048 15.6654 130.459 15.2396 132.231C14.4863 135.381 17.1064 142.468 19.7265 144.371C21.2003 145.454 23.2309 145.552 23.886 147.324L25.6545 152.148C26.3096 153.919 24.8357 155.33 24.41 157.102C23.6567 160.252 26.2768 167.372 28.8969 169.275C30.3707 170.358 32.4013 170.456 33.0564 172.228L34.8249 177.052C35.48 178.823 34.0061 180.202 33.5804 182.006C32.8271 185.156 35.4472 192.243 38.0673 194.147C39.5411 195.229 41.5717 195.328 42.2268 197.1L43.9953 201.923C44.6504 203.695 43.1765 205.106 42.7508 206.877C41.9975 210.027 44.6176 217.148 47.2377 219.018C48.7115 220.101 50.7421 220.199 51.3971 221.971L53.1657 226.794C53.8208 228.566 52.3469 229.977 51.9212 231.749C51.4954 233.586 54.5413 238.836 54.5413 238.836C57.0304 245.595 64.5305 249.041 71.2445 246.514L142.479 220.068C149.226 217.574 152.665 210.06 150.143 203.334C150.143 203.334 149.062 197.362 147.523 196.247C146.049 195.164 144.018 195.065 143.363 193.293L143.527 193.261Z" fill="#A7D8EA"/>
<path d="M124.563 133.74C125.317 130.59 122.697 123.47 120.076 121.6C118.603 120.517 116.572 120.419 115.917 118.647L114.148 113.823C113.493 112.052 114.967 110.641 115.393 108.869C116.146 105.719 113.526 98.5988 110.906 96.6958C109.432 95.613 107.402 95.5145 106.747 93.7427L104.978 88.9194C104.323 87.1476 105.797 85.7695 106.223 83.9648C106.517 82.718 104.454 79.2071 104.454 79.2071C97.1504 59.4873 71.7353 50.1359 54.8356 51.3172L48.2526 33.5332L34.5952 38.5862L106.616 233.357L142.609 220.002C149.356 217.508 152.795 209.995 150.273 203.268C150.273 203.268 149.192 197.296 147.653 196.181C146.179 195.098 144.149 195 143.494 193.228L141.725 188.405C141.07 186.633 142.544 185.222 142.97 183.45C143.723 180.3 141.103 173.213 138.483 171.31C137.009 170.227 134.978 170.128 134.323 168.357L132.555 163.533C131.9 161.761 133.374 160.383 133.799 158.579C134.553 155.429 131.932 148.341 129.312 146.438C127.839 145.356 125.808 145.257 125.153 143.485L123.384 138.662C122.729 136.89 124.203 135.512 124.629 133.707L124.563 133.74Z" fill="#89CEEC"/>
<g style="mix-blend-mode:multiply">
<path d="M141.955 218.264L70.7209 244.71C70.2297 244.874 69.7056 244.644 69.5419 244.152C69.3781 243.66 69.6074 243.135 70.0986 242.971L141.333 216.525C146.147 214.753 148.604 209.372 146.835 204.549L146.737 204.319L146.639 203.925C146.246 201.76 145.591 199.758 145.23 199.036C145.001 198.938 144.772 198.806 144.51 198.708C143.2 198.117 141.005 197.166 140.023 194.541L138.254 189.718C137.272 187.093 138.32 184.927 138.942 183.615C139.139 183.221 139.302 182.827 139.368 182.597C139.761 180.891 137.698 175.313 136.289 174.329C136.093 174.198 135.7 174.034 135.339 173.87C133.997 173.279 131.802 172.295 130.82 169.67L129.051 164.846C128.069 162.221 129.117 160.056 129.739 158.743C129.935 158.35 130.099 157.956 130.165 157.726C130.558 156.02 128.494 150.475 127.086 149.425C126.89 149.294 126.497 149.097 126.136 148.933C124.794 148.342 122.632 147.358 121.649 144.733L119.881 139.909C118.898 137.284 119.946 135.119 120.569 133.806C120.765 133.413 120.929 133.019 120.994 132.789C121.387 131.116 119.324 125.538 117.916 124.521C117.719 124.389 117.326 124.225 116.966 124.029C115.656 123.438 113.462 122.486 112.479 119.861L110.678 115.038C109.695 112.413 110.743 110.248 111.365 108.935C111.562 108.541 111.726 108.148 111.791 107.918C112.184 106.245 110.121 100.667 108.713 99.6494C108.516 99.5182 108.123 99.3541 107.763 99.1901C106.42 98.5995 104.226 97.6151 103.243 94.9902L101.475 90.1669C100.492 87.5419 101.54 85.3764 102.162 84.0639C102.261 83.867 102.359 83.6701 102.424 83.5061C102.195 82.9155 101.737 81.8983 101.245 81.0452L101.114 80.8155L100.95 80.4546C94.2037 62.2113 69.9676 53.9427 55.0985 54.9927L53.0024 55.1239C52.6094 55.1239 52.2164 54.9271 52.0854 54.5333L45.7643 37.4056C45.6006 36.9134 45.8298 36.3885 46.3211 36.2244C46.8124 36.0603 47.3364 36.29 47.5002 36.7822L53.5919 53.2537L55.0002 53.1552C70.4589 52.0725 95.6775 60.7347 102.719 79.7984L102.85 80.0937C103.505 81.2093 104.127 82.5874 104.324 83.2764C104.357 83.4733 104.357 83.6373 104.324 83.8342C104.226 84.1295 104.062 84.4904 103.865 84.8514C103.309 86.0326 102.555 87.6075 103.243 89.5106L105.012 94.3339C105.699 96.237 107.337 96.9261 108.516 97.4511C109.04 97.6807 109.499 97.8776 109.826 98.1401C111.857 99.6166 114.182 105.916 113.593 108.345C113.494 108.771 113.265 109.23 113.036 109.723C112.479 110.904 111.726 112.512 112.413 114.382L114.182 119.205C114.87 121.108 116.507 121.83 117.686 122.322C118.178 122.552 118.636 122.749 118.997 123.011C121.027 124.488 123.352 130.788 122.763 133.216C122.665 133.642 122.435 134.102 122.206 134.594C121.649 135.775 120.896 137.383 121.584 139.253L123.352 144.077C124.04 145.98 125.678 146.669 126.857 147.194C127.348 147.423 127.807 147.62 128.167 147.883C130.198 149.359 132.523 155.659 131.933 158.087C131.835 158.514 131.606 158.94 131.409 159.432C130.82 160.646 130.067 162.221 130.787 164.124L132.556 168.948C133.243 170.851 134.881 171.54 136.06 172.065C136.584 172.295 137.043 172.491 137.37 172.754C139.401 174.23 141.726 180.53 141.136 182.958C141.038 183.385 140.809 183.844 140.58 184.336C140.023 185.518 139.27 187.125 139.957 188.996L141.726 193.819C142.414 195.722 144.051 196.444 145.23 196.936C145.656 197.133 146.049 197.297 146.377 197.494C146.475 197.56 146.573 197.658 146.671 197.756C147.294 198.675 148.08 201.464 148.44 203.499L148.538 203.827C150.667 209.602 147.72 216.033 141.955 218.165V218.264Z" fill="#89CEEC"/>
</g>
<g style="mix-blend-mode:screen">
<path d="M57.587 238.671C57.0957 238.835 56.5717 238.605 56.4079 238.113L56.2769 237.818C55.2289 236.013 54.0171 233.388 53.8861 232.305C53.8861 232.174 53.8861 232.043 53.9188 231.912C54.0171 231.584 54.2136 231.157 54.4101 230.73C54.9669 229.582 55.7202 227.974 55.0324 226.071L53.2638 221.248C52.576 219.345 50.9385 218.656 49.7594 218.131C49.2681 217.901 48.8096 217.704 48.4494 217.442C46.4188 215.965 44.0934 209.665 44.6829 207.237C44.7812 206.811 45.0105 206.351 45.2397 205.892C45.7965 204.711 46.5498 203.103 45.862 201.233L44.0934 196.409C43.4056 194.506 41.7681 193.817 40.589 193.292C40.0977 193.063 39.6065 192.866 39.279 192.603C37.2484 191.127 34.923 184.827 35.5125 182.399C35.6108 181.972 35.8401 181.513 36.0693 181.021C36.6261 179.872 37.3794 178.265 36.6916 176.361L34.923 171.538C34.2352 169.635 32.5977 168.946 31.4514 168.421C30.9601 168.191 30.5016 167.994 30.1413 167.732C28.1107 166.255 25.7854 159.956 26.3749 157.528C26.4731 157.101 26.7024 156.642 26.9317 156.149C27.4884 154.968 28.2417 153.393 27.5539 151.49L25.7526 146.667C25.0648 144.764 23.4273 144.075 22.281 143.55C21.7897 143.32 21.3312 143.123 20.9709 142.861C18.9403 141.384 16.615 135.084 17.2045 132.656C17.3027 132.23 17.532 131.77 17.7613 131.278C18.318 130.097 19.0713 128.489 18.3835 126.619L16.615 121.796C15.9272 119.893 14.3224 119.203 13.1433 118.678C12.7831 118.514 12.4228 118.35 12.1608 118.219C11.997 118.121 11.866 117.989 11.7678 117.825C11.4402 117.169 11.0472 115.725 10.818 114.446L10.7197 114.15C3.67815 95.054 17.139 72.053 29.5845 62.7673L30.6981 61.947L24.6063 45.4755C24.4426 44.9834 24.6718 44.4584 25.1631 44.2615C25.6544 44.0974 26.1784 44.3271 26.3749 44.8193L32.6959 61.947C32.8269 62.3408 32.6959 62.7673 32.3684 63.0298L30.6981 64.2766C18.7111 73.2014 5.70874 95.2837 12.4555 113.527L12.5538 113.757L12.652 114.15C12.8486 115.135 13.1433 116.218 13.3398 116.775C13.5036 116.874 13.7001 116.939 13.8966 117.038C15.2067 117.629 17.401 118.58 18.3835 121.205L20.1521 126.028C21.1347 128.653 20.0866 130.819 19.4643 132.131C19.2678 132.525 19.1041 132.919 19.0386 133.148C18.6456 134.855 20.7089 140.4 22.0845 141.417C22.281 141.548 22.674 141.745 23.067 141.909C24.3771 142.5 26.5714 143.451 27.5539 146.109L29.3225 150.932C30.3051 153.557 29.257 155.723 28.6347 157.035C28.4382 157.429 28.2745 157.79 28.209 158.053C27.816 159.726 29.8793 165.304 31.2549 166.321C31.4514 166.452 31.8444 166.649 32.2374 166.813C33.5475 167.404 35.7418 168.355 36.7243 171.013L38.4929 175.836C39.4755 178.461 38.4274 180.627 37.8051 181.939C37.6086 182.333 37.4449 182.727 37.3794 182.957C36.9864 184.63 39.0497 190.208 40.4253 191.225C40.6218 191.356 41.0148 191.52 41.375 191.717C42.7179 192.308 44.9122 193.292 45.862 195.917L47.6306 200.741C48.6131 203.365 47.5651 205.531 46.9428 206.844C46.7463 207.237 46.5825 207.631 46.517 207.861C46.124 209.567 48.1873 215.112 49.5957 216.129C49.7922 216.26 50.1852 216.457 50.5782 216.621C51.8882 217.212 54.0826 218.164 55.0651 220.821L56.8337 225.645C57.8163 228.27 56.7682 230.435 56.1459 231.748C56.0149 232.01 55.9167 232.24 55.8184 232.469C56.0149 233.224 56.8337 235.193 57.9473 237.096L58.2093 237.687C58.373 238.179 58.1438 238.704 57.6525 238.868L57.587 238.671Z" fill="#A7D8EA"/>
</g>
<g style="mix-blend-mode:multiply">
<path d="M97.2827 91.6119L29.1597 116.877C28.6684 117.041 28.1444 116.811 27.9806 116.319C27.8169 115.86 28.0462 115.302 28.5374 115.138L96.6604 89.8728C97.1517 89.7088 97.6757 89.9385 97.8394 90.4306C98.0032 90.9228 97.7739 91.4478 97.2827 91.6119Z" fill="#89CEEC"/>
</g>
<g style="mix-blend-mode:screen">
<path d="M81.5291 108.411L20.546 131.051C20.0547 131.215 19.5307 130.985 19.3342 130.493C19.1704 130.001 19.3997 129.476 19.8909 129.312L80.8741 106.672C81.3654 106.508 81.8894 106.737 82.0531 107.229C82.2169 107.722 81.9876 108.247 81.4964 108.443L81.5291 108.411Z" fill="#ADD0E3"/>
</g>
<g style="mix-blend-mode:multiply">
<path d="M106.419 116.254L38.2964 141.552C37.8051 141.716 37.2811 141.487 37.1174 140.994C36.9536 140.502 37.1829 139.977 37.6741 139.813L105.797 114.515C106.288 114.351 106.812 114.581 106.976 115.073C107.14 115.533 106.911 116.09 106.419 116.254Z" fill="#89CEEC"/>
</g>
<g style="mix-blend-mode:screen">
<path d="M90.6336 133.053L29.6505 155.693C29.1592 155.857 28.6352 155.628 28.4387 155.136C28.2749 154.643 28.5042 154.118 28.9954 153.954L89.9786 131.314C90.4698 131.15 90.9939 131.38 91.1904 131.872C91.3541 132.364 91.1249 132.889 90.6336 133.053Z" fill="#ADD0E3"/>
</g>
<g style="mix-blend-mode:multiply">
<path d="M115.524 140.856L47.4014 166.154C46.9101 166.318 46.3861 166.089 46.2223 165.596C46.0586 165.104 46.2878 164.579 46.7791 164.415L114.902 139.15C115.393 138.986 115.917 139.216 116.081 139.708C116.245 140.2 116.016 140.725 115.524 140.889V140.856Z" fill="#89CEEC"/>
</g>
<g style="mix-blend-mode:screen">
<path d="M99.7386 157.69L38.7554 180.33C38.2641 180.494 37.7401 180.264 37.5764 179.772C37.4126 179.28 37.6419 178.755 38.1331 178.558L99.1163 155.918C99.6075 155.754 100.132 155.983 100.328 156.476C100.492 156.968 100.263 157.493 99.7713 157.657L99.7386 157.69Z" fill="#ADD0E3"/>
</g>
<g style="mix-blend-mode:multiply">
<path d="M124.629 165.503L56.5059 190.801C56.0146 190.965 55.4906 190.735 55.3268 190.276C55.1631 189.784 55.3923 189.259 55.8836 189.094L124.007 163.797C124.498 163.633 125.022 163.862 125.186 164.354C125.349 164.847 125.12 165.372 124.629 165.536V165.503Z" fill="#89CEEC"/>
</g>
<g style="mix-blend-mode:screen">
<path d="M108.843 182.303L47.8599 204.943C47.3686 205.107 46.8446 204.878 46.6808 204.386C46.5171 203.893 46.7463 203.368 47.2376 203.204L108.221 180.564C108.712 180.4 109.236 180.63 109.4 181.122C109.564 181.614 109.334 182.139 108.843 182.303Z" fill="#ADD0E3"/>
</g>
<g style="mix-blend-mode:multiply">
<path d="M133.735 190.141L65.6118 215.406C65.1206 215.571 64.5966 215.341 64.4328 214.849C64.269 214.357 64.4983 213.832 64.9896 213.667L133.113 188.402C133.604 188.238 134.128 188.468 134.292 188.927C134.455 189.42 134.226 189.945 133.735 190.109V190.141Z" fill="#89CEEC"/>
</g>
<g style="mix-blend-mode:screen">
<path d="M117.948 206.942L56.9649 229.582C56.4736 229.746 55.9496 229.516 55.7531 229.024C55.5894 228.532 55.8186 228.007 56.3099 227.843L117.293 205.203C117.784 205.039 118.308 205.269 118.505 205.761C118.669 206.253 118.439 206.778 117.948 206.975V206.942Z" fill="#ADD0E3"/>
</g>
<g style="mix-blend-mode:screen">
<path d="M33.8748 68.7362C23.5909 76.4142 11.8659 96.0356 17.5646 111.457L17.8594 112.212L17.9576 112.704C19.8245 113.787 22.2153 115.69 23.4926 119.135L25.2612 123.958C26.9315 128.486 25.4577 132.194 24.5734 134.064C24.7699 134.885 25.1957 136.033 25.5887 136.821C27.4556 137.674 30.9927 139.511 32.663 144.039L34.4316 148.862C36.1019 153.39 34.6281 157.098 33.7438 158.968C33.9403 159.822 34.3661 160.937 34.7591 161.725C36.626 162.578 40.1631 164.415 41.8334 168.943L43.602 173.767C45.2723 178.295 43.7985 182.002 42.9142 183.873C43.1107 184.726 43.5365 185.841 43.9295 186.629C45.7964 187.482 49.3335 189.319 51.0038 193.847L52.7724 198.671C54.4427 203.199 52.9689 206.906 52.0846 208.777C52.2811 209.597 52.7069 210.745 53.0999 211.533C54.9668 212.386 58.5039 214.223 60.1742 218.751L61.9428 223.575C63.3184 227.282 62.5651 230.432 61.7791 232.499C62.0411 233.057 62.3686 233.648 62.6306 234.14L63.0564 234.829L63.3511 235.584C64.0389 237.454 66.135 238.406 68.0018 237.717L79.3666 233.484C78.0893 233.943 76.4844 232.828 75.7967 230.925L75.5019 230.17L75.1416 229.448C74.8796 228.956 74.6176 228.332 74.3556 227.775C74.7159 225.904 74.9124 222.918 73.5696 219.211L71.801 214.387C70.1307 209.859 67.4123 207.727 65.9712 206.71C65.611 205.922 65.1852 204.774 64.9559 203.953C65.3817 202.247 66.0695 198.835 64.3992 194.307L62.6306 189.483C60.9603 184.955 58.2419 182.823 56.8008 181.805C56.4406 181.051 56.0148 179.902 55.7855 179.049C56.2113 177.343 56.8991 173.931 55.2288 169.403L53.4602 164.579C51.7899 160.051 49.0715 157.918 47.6304 156.901C47.2702 156.147 46.8444 154.998 46.6151 154.145C47.0409 152.439 47.7287 149.026 46.0584 144.498L44.2898 139.675C42.6195 135.147 39.9011 133.014 38.46 131.997C38.0998 131.21 37.674 130.094 37.4447 129.241C37.8705 127.535 38.5583 124.122 36.888 119.594L35.1194 114.771C33.8421 111.326 31.9425 109.259 30.4687 108.012L30.3377 107.52L30.0429 106.765C24.3442 91.3435 30.7307 73.6908 37.3465 67.3909L40.5889 64.3066L33.9076 68.6706L33.8748 68.7362Z" fill="#A7D8EA"/>
</g>
<path d="M14.7575 34.495L47.7107 22.2632C48.7856 21.8642 49.9948 22.3951 50.4044 23.5028L54.4553 34.4561C54.8535 35.533 54.2929 36.7558 53.218 37.1548L20.2648 49.3866C19.1899 49.7856 17.9693 49.224 17.5711 48.1471L13.5202 37.1937C13.122 36.1169 13.6633 34.9362 14.7382 34.5372L14.7575 34.495Z" fill="#297AC1"/>
<path d="M41.8668 1.34278L5.67643 14.7628C1.84452 16.2065 -0.120568 20.5048 1.28774 24.3438L12.9145 55.8102C14.2901 59.518 18.3185 61.4539 22.0521 60.3054L22.3142 60.9617C22.7072 62.0445 23.919 62.6023 24.967 62.1757L57.9477 49.9369C59.0285 49.5432 59.5853 48.3292 59.1923 47.2792L58.963 46.6229C62.5984 45.0808 64.4325 40.9465 63.0569 37.206L51.3974 5.73955C49.9564 1.90058 45.6987 -0.100937 41.834 1.34278H41.8668ZM59.5853 38.4856C60.2731 40.2903 59.4215 42.2918 57.6857 43.1121L57.2927 42.0949C56.8997 41.0121 55.6879 40.4543 54.6071 40.8481L21.6264 53.0869C20.5456 53.4806 19.9888 54.6946 20.3818 55.7774L20.7748 56.7946C18.9735 57.254 17.0739 56.2696 16.3861 54.4978L4.79215 23.0641C4.07161 21.1282 5.05416 18.9955 6.98649 18.2736L43.1441 4.85363C45.0764 4.13178 47.2052 5.11613 47.9258 7.05202L59.5525 38.5185L59.5853 38.4856Z" fill="#297AC1"/>
<path d="M47.7293 22.2765L30.8623 28.5435L36.3645 43.4073L53.2315 37.1402C54.3123 36.7465 54.8691 35.5324 54.4433 34.4497L50.3822 23.4905C49.9891 22.4078 48.7773 21.85 47.6965 22.2765H47.7293Z" fill="#1775B9"/>
<path d="M41.8669 1.34278L23.3623 8.20043L24.6396 11.6785L43.1442 4.85363C45.0765 4.13177 47.2053 5.11613 47.9259 7.05202L59.5526 38.5185C60.2404 40.3231 59.3889 42.3246 57.653 43.1449L57.26 42.1277C56.867 41.045 55.6552 40.4872 54.5744 40.8809L37.7074 47.1479L41.0808 56.2368L57.9478 49.9697C59.0286 49.576 59.5854 48.362 59.1924 47.312L58.9631 46.6558C62.5985 45.1136 64.4326 40.9793 63.057 37.2388L51.3975 5.73955C49.9565 1.90058 45.6988 -0.100937 41.8341 1.34278H41.8669Z" fill="#1775B9"/>
<g style="mix-blend-mode:multiply">
<path d="M115.23 131.838C115.033 130.985 114.608 129.87 114.215 129.082C112.348 128.229 108.811 126.392 107.14 121.864L105.372 117.04C103.701 112.512 105.175 108.804 106.059 106.934C105.863 106.114 105.437 104.965 105.044 104.178C103.177 103.325 99.6402 101.487 97.9698 96.9594L96.2013 92.1361C94.924 88.6909 95.4807 85.705 96.2013 83.6379L95.9393 83.2113L95.6445 82.4567C89.9457 67.0351 68.297 59.7838 55.4912 60.7025L47.5981 61.7525L52.0523 61.9821C61.1572 62.4415 77.5002 71.6616 83.1989 87.0831L83.4937 87.8378L83.723 88.2971C83.3955 90.2002 83.3299 92.9892 84.6073 96.4673L85.0003 97.4844L63.9739 105.294C62.6638 105.786 62.0088 107.23 62.4673 108.542C62.9586 109.854 64.3996 110.511 65.7097 110.051L86.7688 102.242C88.4392 106.114 90.8955 108.05 92.2056 108.969C92.5658 109.723 92.9916 110.872 93.2209 111.725C92.7951 113.431 92.1073 116.843 93.7777 121.371L94.0724 122.224L73.046 130.034C71.7359 130.526 71.0809 131.97 71.5394 133.282C72.0307 134.594 73.4718 135.251 74.7818 134.791L95.841 126.982C97.5113 130.952 100 132.954 101.376 133.905C101.736 134.693 102.162 135.809 102.391 136.662C101.966 138.368 101.278 141.78 102.948 146.308L103.177 146.964L82.1509 154.774C80.8408 155.266 80.1858 156.71 80.6443 158.022C81.1356 159.335 82.5767 160.024 83.8867 159.531L104.946 151.722C106.616 155.824 109.171 157.858 110.546 158.81C110.907 159.564 111.332 160.713 111.562 161.566C111.136 163.272 110.448 166.684 112.118 171.212L112.282 171.672L91.2558 179.481C89.9457 179.973 89.2907 181.417 89.7492 182.729C90.2405 184.042 91.6816 184.698 92.9916 184.239L114.051 176.429C115.721 180.662 118.341 182.729 119.717 183.714C120.077 184.468 120.503 185.617 120.732 186.47C120.306 188.176 119.619 191.588 121.289 196.116L121.387 196.379L100.361 204.188C99.0506 204.68 98.3956 206.124 98.8541 207.436C99.3126 208.749 100.786 209.438 102.097 208.946L123.123 201.137C124.498 204.713 126.529 206.78 128.003 207.961C128.199 208.585 128.363 209.241 128.494 209.733L128.691 210.521L128.985 211.275C129.673 213.146 129.215 215.049 127.937 215.541L139.302 211.308C141.169 210.619 142.152 208.519 141.431 206.649L141.136 205.894L140.972 205.107C140.874 204.582 140.71 203.926 140.547 203.302C138.614 202.252 135.994 200.349 134.619 196.641L132.85 191.818C131.18 187.29 132.654 183.582 133.538 181.712C133.341 180.859 132.916 179.711 132.523 178.956C130.656 178.103 127.119 176.265 125.448 171.737L123.68 166.914C122.009 162.386 123.483 158.678 124.367 156.808C124.171 155.955 123.745 154.839 123.352 154.052C121.485 153.199 117.948 151.361 116.278 146.833L114.509 142.01C112.839 137.482 114.313 133.774 115.197 131.904L115.23 131.838Z" fill="#89CEEC"/>
</g>
</svg>
