<svg width="30" height="30" viewBox="0 0 30 30" fill="none" xmlns="http://www.w3.org/2000/svg">
<path fill-rule="evenodd" clip-rule="evenodd" d="M7.49933 30H22.498V29.9973C22.6214 29.9723 22.7452 29.949 22.8689 29.9258C23.1163 29.8793 23.3638 29.8327 23.6088 29.7719C26.257 29.1091 28.1486 27.5258 29.2917 25.0543C29.788 23.9782 30 22.835 30 21.6489C29.9979 19.9447 29.9979 18.2401 29.9978 16.5355C29.9977 13.8083 29.9975 11.081 29.9893 8.35467C29.9866 7.76429 29.9329 7.1605 29.8149 6.58354C29.1414 3.31769 26.5334 0.757599 23.2734 0.148438C22.7502 0.051831 22.2082 0.00889451 21.6743 0.00889451C17.223 -0.00183961 12.7717 -0.00183961 8.32037 0.00352745C4.3091 0.00889451 0.939093 2.77561 0.147572 6.70162C0.105448 6.91016 0.0682844 7.1187 0.0308893 7.32855C0.0206458 7.38603 0.0103849 7.44361 0 7.50131V22.4996C0.0264247 22.6298 0.0508577 22.7607 0.0752839 22.8916C0.120303 23.1328 0.1653 23.3739 0.222699 23.6105C0.885431 26.2645 2.47921 28.1537 4.95305 29.2996C5.68017 29.6377 6.45291 29.8336 7.24712 29.9383C7.30937 29.948 7.37021 29.9648 7.43066 29.9815C7.45359 29.9878 7.47646 29.9941 7.49933 30ZM27.3196 15.0045H27.3088C27.3088 15.7053 27.3135 16.4064 27.3181 17.1075C27.3288 18.7312 27.3396 20.3551 27.2927 21.9763C27.2283 24.1231 26.1363 25.693 24.2608 26.7127C23.4317 27.1635 22.5248 27.3272 21.583 27.3272C20.7038 27.3261 19.8247 27.3246 18.9456 27.3231C15.4306 27.3171 11.9166 27.3111 8.40086 27.3326C5.77676 27.3487 3.64636 25.6715 2.97022 23.4844C2.7824 22.8806 2.68849 22.2231 2.68581 21.5898C2.67401 19.4445 2.67566 17.2984 2.6773 15.1524C2.67903 12.9041 2.68075 10.6559 2.66702 8.40834C2.65093 5.77312 4.33593 3.65044 6.51462 2.97688C7.11833 2.78903 7.77569 2.69511 8.40891 2.69242C10.5553 2.68063 12.701 2.68227 14.8467 2.68392C17.0946 2.68564 19.3425 2.68737 21.5911 2.67364C24.2071 2.65754 26.3134 4.32938 27.0378 6.51645C27.2498 7.15245 27.3196 7.80455 27.3196 8.47275V15.0045ZM20.762 22.25L23.6545 7.41813V7.41544C23.735 7.00486 23.3191 6.6721 22.9354 6.84117L5.2053 14.6583C4.64721 14.9052 4.69819 15.7129 5.28311 15.8847L8.47871 16.8293C9.09046 17.0117 9.75051 16.9071 10.2764 16.5475L17.8052 11.4005C17.9448 11.3066 18.1272 11.3012 18.2721 11.3871C18.5163 11.5347 18.5538 11.8782 18.3446 12.074L12.4685 17.586C12.0875 17.9429 12.1385 18.5601 12.5732 18.85L18.8758 23.0389C19.6056 23.5247 20.593 23.1114 20.762 22.25Z" fill="white"/>
</svg>
